<svg xmlns="http://www.w3.org/2000/svg" xmlns:xlink="http://www.w3.org/1999/xlink" viewBox="0 0 489.22 378.03"><defs><style>.cls-1,.cls-7{fill:#fff;}.cls-2{fill:url(#linear-gradient);}.cls-3{fill:url(#linear-gradient-2);}.cls-4{fill:url(#linear-gradient-3);}.cls-5{fill:url(#linear-gradient-4);}.cls-6{fill:url(#linear-gradient-5);}.cls-7{font-size:16.49px;font-family:Helvetica-Bold, Helvetica;font-weight:700;}</style><linearGradient id="linear-gradient" x1="271.69" y1="221.71" x2="424.63" y2="221.71" gradientUnits="userSpaceOnUse"><stop offset="0" stop-color="#f05a28"/><stop offset="1" stop-color="#fff100"/></linearGradient><linearGradient id="linear-gradient-2" x1="79.68" y1="218.01" x2="438.66" y2="218.01" xlink:href="#linear-gradient"/><linearGradient id="linear-gradient-3" x1="79.68" y1="215.94" x2="438.66" y2="215.94" xlink:href="#linear-gradient"/><linearGradient id="linear-gradient-4" x1="79.68" y1="197.23" x2="438.66" y2="197.23" xlink:href="#linear-gradient"/><linearGradient id="linear-gradient-5" x1="79.68" y1="214.18" x2="309.08" y2="214.18" xlink:href="#linear-gradient"/></defs><title>gochiso</title><g id="background"><rect class="cls-1" width="489.22" height="378.03"/><path class="cls-2" d="M348.16,221.67v.07h0A.14.14,0,0,1,348.16,221.67Z"/><path class="cls-3" d="M235.72,218.15l-.27,0a2.56,2.56,0,0,1-.07-.26h.31A2.48,2.48,0,0,0,235.72,218.15Z"/><path class="cls-4" d="M266.29,214.15a.61.61,0,0,0,0,.07h0A.14.14,0,0,0,266.29,214.15Zm-21.9,3.26v.33h.34a1.5,1.5,0,0,0,0-.27Z"/><path class="cls-5" d="M372.24,203.73l-.17,0h0c-.21,0-.46,0-.74,0a12.41,12.41,0,0,0-2.32.22h-2.47a8.59,8.59,0,0,0-1.93.21,14.11,14.11,0,0,0-3.56-.44h-.15a25.56,25.56,0,0,0,2-1.79,26.83,26.83,0,0,0,0-37.92,27.21,27.21,0,0,0-37.82,0c-.11.1-.2.2-.3.31a18.38,18.38,0,0,0-15.42-7.94,19.55,19.55,0,0,0-11.24,3.42A14.07,14.07,0,1,0,274.81,161a2,2,0,0,0-.15.24,21,21,0,0,0-14-5V141.94a9.07,9.07,0,0,0-9.07-9.07H244a9.07,9.07,0,0,0-9.07,9.07v16a28,28,0,0,0-9.43-1.6,27.09,27.09,0,0,0-21.32,10A25.29,25.29,0,0,0,202,164a27.24,27.24,0,0,0-36.77-1,21.75,21.75,0,0,0,1.67-8.52c0-11.51-8.81-23.16-25.66-23.16-30.45,0-49.16,36.17-49.16,62.11,0,13.66,5.16,23.91,13.84,28.77-7.17,5.4-11.34,12.84-11.34,21.3,0,11.63,8.91,19.75,21.68,19.75,15,0,25.32-14,31.45-26.17a86.6,86.6,0,0,1,18.32,4.28c7.33,2.75,21.29,6.58,33.59,6.58A37.9,37.9,0,0,0,212.48,246c6.59-2.41,12.31-8.12,12.41-15.15h5.16a17.5,17.5,0,0,0,3.52-.35c.45-.1.9-.21,1.33-.34a14.33,14.33,0,0,0,11.56-.48,12.07,12.07,0,0,0,5.83,1.45,12.35,12.35,0,0,0,2.65-.29h2.84a9.1,9.1,0,0,0,4.53-1.2,15.17,15.17,0,0,0,11.08.88,9.16,9.16,0,0,0,2.42.32h2.29a9.27,9.27,0,0,0,1.63-.14,9.08,9.08,0,0,0,1.62.14h2.35a8,8,0,0,0,1.27-.1,12.55,12.55,0,0,0,5.7.09h2.84a6.89,6.89,0,0,0,.77,0,6.72,6.72,0,0,0,.76,0h2.29a9.19,9.19,0,0,0,1.63-.14H299a11.32,11.32,0,0,0,2.14,1.7,14,14,0,0,0,7.52,2,13.53,13.53,0,0,0,9.41-3.31l.81,0a14.38,14.38,0,0,0,3.66-.46,9.31,9.31,0,0,0,1.73.16h2.33a9.37,9.37,0,0,1,2.8,0h2.31a9.48,9.48,0,0,0,1.39-.11,9.68,9.68,0,0,0,1.39.11h2.35a9,9,0,0,0,1.25-.09,12.73,12.73,0,0,0,3,.36,12.35,12.35,0,0,0,2.65-.29h2.84l.74,0,.74,0h2.25a9,9,0,0,0,1.54-.13,9.2,9.2,0,0,0,1.54.13h2.79a8.52,8.52,0,0,0,1.4-.11,14.42,14.42,0,0,0,3.41.41,14,14,0,0,0,3.66-.47,8.75,8.75,0,0,0,1.75.17h2.31a9.07,9.07,0,0,0,9.07-9.07v-.08a9.08,9.08,0,0,0,2.79-6.54v-2.35A9.1,9.1,0,0,0,372.24,203.73ZM235.46,218.12a2.56,2.56,0,0,1-.07-.26h.31a2.48,2.48,0,0,0,0,.28Zm9.28-.39h-.34v-.33l.36.06A1.5,1.5,0,0,1,244.74,217.73Zm21.53-3.51a.61.61,0,0,1,0-.07.14.14,0,0,1,0,.07Zm48,3.91-.06-.26h.31a2.46,2.46,0,0,0,0,.28Zm33.91,3.62v-.07a.14.14,0,0,0,0,.07Z"/><path class="cls-6" d="M266.29,214.15a.61.61,0,0,0,0,.07h0A.14.14,0,0,0,266.29,214.15Z"/><path class="cls-3" d="M314.5,217.87h-.31l.06.26.28,0A2.46,2.46,0,0,1,314.5,217.87Z"/><path class="cls-2" d="M348.16,221.67v.07h0A.14.14,0,0,1,348.16,221.67Z"/><path class="cls-2" d="M348.18,221.74h0v-.07A.14.14,0,0,0,348.18,221.74Z"/><path class="cls-1" d="M138.81,221.93s8-1.25,28.51,2.73,36.11,2.9,41.76,1.74c7.93-1.63,9.83,7.55.29,11s-28.36-.23-40.12-4.63a99.52,99.52,0,0,0-29.75-5.51c-1.63,0-1-4.59-1-4.59Z"/><path class="cls-1" d="M141.74,176l-1,4.08c-3.64,14.88-9.42,27.83-16.47,27.83-5.22,0-7.5-5.44-7.5-13.17,0-18.29,11.92-48.38,25.11-48.38,3.4,0,5,2,5,4.88a15,15,0,0,1-3.76,9c.58,2.5,3.18,4.42,6.48,4.42,5.22,0,8.28-4.88,8.28-10.21,0-6.7-4.88-14.08-16.58-14.08-23.85,0-40.09,30.77-40.09,53,0,12.83,5.24,22.83,17.38,22.83,6.7,0,11.58-3,15.22-7.84l-3.57,14.13c-15,1.82-26.54,9.94-26.54,21,0,6.92,5.34,10.68,12.6,10.68,18.86,0,29.55-36.71,29.55-36.71L158.21,176Zm-25.55,71.2c-2.38,0-3.76-1.92-3.76-4.88,0-5.9,6.66-12.48,16.28-13.85C126.72,238,121.87,247.18,116.19,247.18Z"/><path class="cls-1" d="M165.42,182.63a16.48,16.48,0,0,1,5.14-12.23,18.14,18.14,0,0,1,25.13,0,17.76,17.76,0,0,1,0,25,17.58,17.58,0,0,1-12.7,5,16.85,16.85,0,0,1-12.5-5.11A17.18,17.18,0,0,1,165.42,182.63Zm7.83.14a11.19,11.19,0,0,0,2.66,7.87,10.32,10.32,0,0,0,14.37,0,12.45,12.45,0,0,0,0-15.46,10.2,10.2,0,0,0-14.3,0A10.66,10.66,0,0,0,173.25,182.76Z"/><path class="cls-1" d="M234.72,167.71v10.18a18.68,18.68,0,0,0-4.7-4.39,9.15,9.15,0,0,0-4.8-1.23,9.47,9.47,0,0,0-7.19,3,10.63,10.63,0,0,0-2.86,7.59,10.87,10.87,0,0,0,2.76,7.66,9.3,9.3,0,0,0,7.12,3,9.73,9.73,0,0,0,4.87-1.19,19.29,19.29,0,0,0,4.8-4.49V198a20.13,20.13,0,0,1-9.33,2.42,17.85,17.85,0,0,1-12.87-5A16.59,16.59,0,0,1,207.34,183a16.81,16.81,0,0,1,5.24-12.53,17.74,17.74,0,0,1,12.87-5.11A19.23,19.23,0,0,1,234.72,167.71Z"/><path class="cls-1" d="M244,141.93h7.66V169a13.2,13.2,0,0,1,9-3.68,11.66,11.66,0,0,1,9,3.64q2.86,3.17,2.86,10.11v20.33h-7.66V179.83q0-4-1.41-5.77a5.45,5.45,0,0,0-4.55-1.79q-4,0-5.65,2.49t-1.6,8.65v16H244Z"/><path class="cls-1" d="M281,152.49a5,5,0,0,1,5-4.94,4.82,4.82,0,0,1,3.54,1.46,4.71,4.71,0,0,1,1.46,3.51,4.82,4.82,0,0,1-1.46,3.54,4.71,4.71,0,0,1-3.51,1.47,5,5,0,0,1-5-5Zm8.82,13.79v33.17H282.2V166.28Z"/><path class="cls-1" d="M318.84,171.93l-6.33,3.37q-1.5-3.06-3.71-3.06a2.56,2.56,0,0,0-1.8.7,2.34,2.34,0,0,0-.75,1.79q0,1.91,4.43,3.78,6.1,2.62,8.21,4.84a8.28,8.28,0,0,1,2.11,6,10.45,10.45,0,0,1-3.54,8,12.06,12.06,0,0,1-8.31,3.07q-8.34,0-11.82-8.14l6.54-3a14.23,14.23,0,0,0,2.08,3,4.74,4.74,0,0,0,3.34,1.29q3.88,0,3.88-3.54,0-2-3-3.81-1.16-.58-2.32-1.12L305.49,184a14.37,14.37,0,0,1-4.7-3.27,8,8,0,0,1-1.74-5.35,9.46,9.46,0,0,1,3-7.15,10.39,10.39,0,0,1,7.36-2.83Q315.74,165.36,318.84,171.93Z"/><path class="cls-1" d="M326.3,182.63a16.48,16.48,0,0,1,5.14-12.23,18.14,18.14,0,0,1,25.13,0,17.76,17.76,0,0,1,0,25,17.58,17.58,0,0,1-12.7,5,16.85,16.85,0,0,1-12.5-5.11A17.18,17.18,0,0,1,326.3,182.63Zm7.83.14a11.19,11.19,0,0,0,2.66,7.87,10.32,10.32,0,0,0,14.37,0,12.45,12.45,0,0,0,0-15.46,10.2,10.2,0,0,0-14.3,0A10.66,10.66,0,0,0,334.13,182.76Z"/><text class="cls-7" transform="translate(222.52 221.67)">Be a Changemaker</text></g></svg>