<svg xmlns="http://www.w3.org/2000/svg" xmlns:xlink="http://www.w3.org/1999/xlink" viewBox="0 0 312 312"><defs><style>.cls-1,.cls-7{fill:#fff;}.cls-2{fill:url(#linear-gradient);}.cls-3{fill:url(#linear-gradient-2);}.cls-4{fill:url(#linear-gradient-3);}.cls-5{fill:url(#linear-gradient-4);}.cls-6{fill:url(#linear-gradient-5);}.cls-7{font-size:10.52px;font-family:Helvetica-Bold, Helvetica;font-weight:700;}</style><linearGradient id="linear-gradient" x1="181.06" y1="183.68" x2="278.59" y2="183.68" gradientUnits="userSpaceOnUse"><stop offset="0" stop-color="#f05a28"/><stop offset="1" stop-color="#fff100"/></linearGradient><linearGradient id="linear-gradient-2" x1="58.6" y1="181.32" x2="287.54" y2="181.32" xlink:href="#linear-gradient"/><linearGradient id="linear-gradient-3" x1="58.6" y1="180.01" x2="287.54" y2="180.01" xlink:href="#linear-gradient"/><linearGradient id="linear-gradient-4" x1="58.6" y1="168.07" x2="287.54" y2="168.07" xlink:href="#linear-gradient"/><linearGradient id="linear-gradient-5" x1="58.6" y1="178.88" x2="204.91" y2="178.88" xlink:href="#linear-gradient"/></defs><title>gochiso</title><g id="background"><rect class="cls-1" width="312" height="312"/><path class="cls-2" d="M229.82,183.66v0h0A.09.09,0,0,1,229.82,183.66Z"/><path class="cls-3" d="M158.12,181.41l-.17,0a1.63,1.63,0,0,1,0-.16h.19A1.58,1.58,0,0,0,158.12,181.41Z"/><path class="cls-4" d="M177.61,178.86v0h0A.09.09,0,0,0,177.61,178.86Zm-14,2.08v.21h.22a1,1,0,0,0,0-.17Z"/><path class="cls-5" d="M245.18,172.22H245l-.47,0a7.92,7.92,0,0,0-1.48.14h-1.58a5.48,5.48,0,0,0-1.23.13,9,9,0,0,0-2.27-.28h-.1a16.3,16.3,0,0,0,1.3-1.14,17.11,17.11,0,0,0,0-24.18,17.35,17.35,0,0,0-24.12,0l-.19.19a11.72,11.72,0,0,0-9.84-5.06,12.47,12.47,0,0,0-7.17,2.18A9,9,0,1,0,183,145l-.1.15A13.37,13.37,0,0,0,174,142v-9.15a5.78,5.78,0,0,0-5.79-5.79h-4.88a5.78,5.78,0,0,0-5.79,5.79V143a17.89,17.89,0,0,0-6-1,17.28,17.28,0,0,0-13.6,6.38,16.13,16.13,0,0,0-1.33-1.49,17.37,17.37,0,0,0-23.45-.65,13.87,13.87,0,0,0,1.07-5.43c0-7.34-5.62-14.77-16.36-14.77-19.42,0-31.35,23.07-31.35,39.61,0,8.71,3.29,15.25,8.82,18.35-4.57,3.45-7.23,8.19-7.23,13.59,0,7.42,5.68,12.59,13.82,12.59,9.57,0,16.15-9,20.05-16.69a55.23,55.23,0,0,1,11.68,2.73c4.68,1.75,13.57,4.2,21.42,4.2a24.17,24.17,0,0,0,8.18-1.22c4.2-1.53,7.85-5.18,7.92-9.66h3.29a11.16,11.16,0,0,0,2.25-.23c.29-.06.57-.13.85-.22a9.14,9.14,0,0,0,7.38-.3,7.7,7.7,0,0,0,3.72.93,7.88,7.88,0,0,0,1.69-.18h1.81a5.81,5.81,0,0,0,2.89-.77,9.68,9.68,0,0,0,7.06.56,5.84,5.84,0,0,0,1.54.21h1.46a5.91,5.91,0,0,0,1-.09,5.79,5.79,0,0,0,1,.09h1.5a5.13,5.13,0,0,0,.81-.06,8,8,0,0,0,3.64.05H195a4.39,4.39,0,0,0,.49,0,4.28,4.28,0,0,0,.49,0h1.46a5.86,5.86,0,0,0,1-.09h0a7.22,7.22,0,0,0,1.36,1.08,8.91,8.91,0,0,0,4.8,1.29,8.63,8.63,0,0,0,6-2.11h.52a9.17,9.17,0,0,0,2.33-.29,5.94,5.94,0,0,0,1.1.1h1.49a6,6,0,0,1,1.78,0h1.47a6,6,0,0,0,.89-.07,6.18,6.18,0,0,0,.89.07h1.5a5.72,5.72,0,0,0,.8-.05,8.12,8.12,0,0,0,1.94.23,7.88,7.88,0,0,0,1.69-.18h1.81l.48,0,.48,0h1.44a5.75,5.75,0,0,0,1-.09,5.87,5.87,0,0,0,1,.09H235a5.44,5.44,0,0,0,.9-.07,9.2,9.2,0,0,0,2.17.26,8.91,8.91,0,0,0,2.33-.3,5.58,5.58,0,0,0,1.11.11H243a5.78,5.78,0,0,0,5.79-5.79v0a5.79,5.79,0,0,0,1.78-4.17V178A5.8,5.8,0,0,0,245.18,172.22Zm-87.23,9.18a1.63,1.63,0,0,1,0-.16h.19a1.58,1.58,0,0,0,0,.18Zm5.92-.25h-.22v-.21l.23,0A1,1,0,0,1,163.87,181.15Zm13.73-2.24v0a.09.09,0,0,1,0,0Zm30.6,2.49,0-.16h.19a1.57,1.57,0,0,0,0,.18Zm21.63,2.31v0a.09.09,0,0,0,0,0Z"/><path class="cls-6" d="M177.61,178.86v0h0A.09.09,0,0,0,177.61,178.86Z"/><path class="cls-3" d="M208.36,181.24h-.19l0,.16.18,0A1.57,1.57,0,0,1,208.36,181.24Z"/><path class="cls-2" d="M229.82,183.66v0h0A.09.09,0,0,1,229.82,183.66Z"/><path class="cls-2" d="M229.84,183.7h0v0A.09.09,0,0,0,229.84,183.7Z"/><path class="cls-1" d="M96.31,183.82s5.1-.8,18.18,1.74,23,1.85,26.64,1.11c5.06-1,6.27,4.81.19,7s-18.09-.14-25.59-3a63.47,63.47,0,0,0-19-3.51c-1,0-.66-2.93-.66-2.93Z"/><path class="cls-1" d="M98.18,154.52l-.65,2.6c-2.32,9.49-6,17.75-10.5,17.75-3.33,0-4.78-3.47-4.78-8.4,0-11.66,7.6-30.85,16-30.85a2.88,2.88,0,0,1,3.19,3.11,9.56,9.56,0,0,1-2.4,5.72,4,4,0,0,0,4.13,2.82c3.33,0,5.28-3.11,5.28-6.51,0-4.27-3.11-9-10.58-9-15.21,0-25.57,19.62-25.57,33.82,0,8.18,3.34,14.56,11.09,14.56a11.54,11.54,0,0,0,9.71-5l-2.27,9c-9.59,1.16-16.93,6.34-16.93,13.37,0,4.42,3.41,6.81,8,6.81,12,0,18.84-23.41,18.84-23.41l7.88-26.42ZM81.89,199.93c-1.52,0-2.4-1.23-2.4-3.11,0-3.76,4.25-8,10.38-8.84C88.6,194,85.51,199.93,81.89,199.93Z"/><path class="cls-1" d="M113.28,158.76a10.51,10.51,0,0,1,3.28-7.8,11.57,11.57,0,0,1,16,0,11.33,11.33,0,0,1,0,15.92,11.21,11.21,0,0,1-8.1,3.19,10.75,10.75,0,0,1-8-3.26A11,11,0,0,1,113.28,158.76Zm5,.09a7.13,7.13,0,0,0,1.69,5,6.58,6.58,0,0,0,9.17,0,7.94,7.94,0,0,0,0-9.86,6.5,6.5,0,0,0-9.12,0A6.8,6.8,0,0,0,118.28,158.85Z"/><path class="cls-1" d="M157.48,149.25v6.49a11.92,11.92,0,0,0-3-2.8,5.83,5.83,0,0,0-3.06-.78,6,6,0,0,0-4.58,1.93,6.78,6.78,0,0,0-1.82,4.84,6.93,6.93,0,0,0,1.76,4.89,5.93,5.93,0,0,0,4.54,1.91,6.2,6.2,0,0,0,3.11-.76,12.3,12.3,0,0,0,3.06-2.87v6.45a12.84,12.84,0,0,1-6,1.54,11.39,11.39,0,0,1-8.21-3.17A10.58,10.58,0,0,1,140,159a10.72,10.72,0,0,1,3.34-8,11.32,11.32,0,0,1,8.21-3.26A12.27,12.27,0,0,1,157.48,149.25Z"/><path class="cls-1" d="M163.37,132.81h4.89v17.29a8.42,8.42,0,0,1,5.76-2.35,7.44,7.44,0,0,1,5.73,2.32q1.82,2,1.82,6.45v13h-4.89V157a6,6,0,0,0-.9-3.68,3.47,3.47,0,0,0-2.9-1.14,4,4,0,0,0-3.61,1.59q-1,1.61-1,5.52v10.23h-4.89Z"/><path class="cls-1" d="M187,139.54a3.19,3.19,0,0,1,3.17-3.15,3.08,3.08,0,0,1,2.26.93,3,3,0,0,1,.93,2.24,3.08,3.08,0,0,1-.93,2.26,3,3,0,0,1-2.24.93,3.19,3.19,0,0,1-3.19-3.21Zm5.63,8.8v21.15h-4.89V148.34Z"/><path class="cls-1" d="M211.13,151.94l-4,2.15q-1-2-2.37-2a1.63,1.63,0,0,0-1.15.44,1.49,1.49,0,0,0-.48,1.14q0,1.22,2.82,2.41a16.83,16.83,0,0,1,5.23,3.08,5.28,5.28,0,0,1,1.35,3.8,6.66,6.66,0,0,1-2.26,5.13,7.69,7.69,0,0,1-5.3,2q-5.32,0-7.54-5.19l4.17-1.93a9.07,9.07,0,0,0,1.32,1.93,3,3,0,0,0,2.13.82q2.48,0,2.48-2.26,0-1.3-1.91-2.43l-1.48-.72-1.5-.72a9.17,9.17,0,0,1-3-2.09,5.13,5.13,0,0,1-1.11-3.41,6,6,0,0,1,1.89-4.56,6.63,6.63,0,0,1,4.69-1.8Q209.15,147.75,211.13,151.94Z"/><path class="cls-1" d="M215.88,158.76a10.51,10.51,0,0,1,3.28-7.8,11.57,11.57,0,0,1,16,0,11.33,11.33,0,0,1,0,15.92,11.21,11.21,0,0,1-8.1,3.19,10.75,10.75,0,0,1-8-3.26A11,11,0,0,1,215.88,158.76Zm5,.09a7.13,7.13,0,0,0,1.69,5,6.58,6.58,0,0,0,9.17,0,7.94,7.94,0,0,0,0-9.86,6.5,6.5,0,0,0-9.12,0A6.8,6.8,0,0,0,220.88,158.85Z"/><text class="cls-7" transform="translate(149.7 183.66)">Be a Changemaker</text></g></svg>