<svg xmlns="http://www.w3.org/2000/svg" viewBox="0 0 489.22 378.03"><defs><style>.cls-1,.cls-45{fill:#00ab95;}.cls-2{fill:#f1f2f2;}.cls-3{fill:#d1d3d4;}.cls-4{fill:#a9acad;}.cls-5{fill:#3f3c3a;}.cls-6{fill:#edeceb;}.cls-7{fill:#cecece;}.cls-8{opacity:0.1;}.cls-9{fill:#242424;}.cls-10{fill:#0c0c0c;}.cls-11{fill:#231f20;opacity:0.6;}.cls-12{fill:#34363a;}.cls-13{fill:#edece8;}.cls-14,.cls-18{fill:#070606;}.cls-14,.cls-17{opacity:0.3;}.cls-15{fill:#bbc1c5;}.cls-16{fill:#32354c;}.cls-19{fill:#63aa29;}.cls-20{fill:#dca031;}.cls-21{fill:#db413e;}.cls-22{fill:#999189;}.cls-23,.cls-31,.cls-32{fill:#fff;}.cls-24{fill:#dedbd4;}.cls-25{fill:#b8b3aa;}.cls-26,.cls-31,.cls-41{font-size:4.74px;}.cls-26{fill:#666;font-family:BrandonGrotesque-Light, Brandon Grotesque;}.cls-27{letter-spacing:0em;}.cls-28{letter-spacing:-0.01em;}.cls-29{fill:#6e6160;}.cls-30{fill:#1a1a1a;}.cls-31{font-family:BrandonGrotesque-Black, Brandon Grotesque;}.cls-32,.cls-46{opacity:0.5;}.cls-33,.cls-34,.cls-41{fill:#f2f2f2;}.cls-34{font-size:7.11px;font-family:AvenirNext-Regular, Avenir Next;}.cls-35{letter-spacing:-0.01em;}.cls-36{letter-spacing:-0.04em;}.cls-37{font-size:10.6px;}.cls-38{letter-spacing:-0.01em;}.cls-39{letter-spacing:-0.01em;}.cls-40{letter-spacing:-0.01em;}.cls-41,.cls-44,.cls-45,.cls-46,.cls-47,.cls-48{font-family:ProximaNova-Bold, Proxima Nova;font-weight:700;}.cls-42{letter-spacing:-0.09em;}.cls-43{letter-spacing:-0.01em;}.cls-44{font-size:6.52px;}.cls-44,.cls-48{fill:gray;}.cls-45,.cls-46{font-size:21.22px;}.cls-46{fill:#004622;}.cls-47{font-size:12.02px;}.cls-48{font-size:14.68px;}.cls-49{letter-spacing:-0.03em;}.cls-50{letter-spacing:0em;}</style></defs><title>port-website</title><g id="background"><rect class="cls-1" width="489.22" height="378.03"/><path class="cls-2" d="M380.89,277c-.92-.64-5.11-1.15-9.37-1.15H109c-4.26,0-8.45.51-9.37,1.15l-48,31.87c-1.42,1,1.59,5.49,6.75,5.49H422.16c5.16,0,8.18-4.5,6.75-5.49Z"/><path class="cls-3" d="M380.89,277c-.92-.64-5.11-1.15-9.37-1.15H109c-4.26,0-8.45.51-9.37,1.15l-48,31.87c-1.42,1,1.59,1.8,6.75,1.8H422.16c5.16,0,8.18-.81,6.75-1.8Z"/><path class="cls-3" d="M261.67,312.4H218.81c-2.52,0-4.57-1-4.57-2.22h52C266.24,311.41,264.19,312.4,261.67,312.4Z"/><path class="cls-4" d="M109,275.85c-1.57,0-3.12.07-4.51.19a26.45,26.45,0,0,0,6.34.57H369.69A26.44,26.44,0,0,0,376,276c-1.39-.12-2.94-.19-4.51-.19Z"/><path class="cls-5" d="M336.26,275.85h-192l-.86.84c-.22.21.77.39,2.21.39H334.84c1.44,0,2.44-.17,2.23-.39Z"/><path class="cls-6" d="M283.87,308.07l-5.3-6.55a1.59,1.59,0,0,0-1.17-.39H203a1.58,1.58,0,0,0-1.17.39l-5.25,6.55c-.19.24.17.5.7.5h85.86C283.7,308.57,284.06,308.31,283.87,308.07Z"/><path class="cls-7" d="M278.75,301.74l-.18-.22a1.59,1.59,0,0,0-1.17-.39H203a1.58,1.58,0,0,0-1.17.39l-.18.22Z"/><g class="cls-8"><path class="cls-9" d="M391.92,298.7H88.56c-1.19,0-2-.6-1.38-1.06l22-17.29a7.59,7.59,0,0,1,4.43-1.16H366.85a7.59,7.59,0,0,1,4.43,1.16l22,17.29C393.89,298.1,393.11,298.7,391.92,298.7Z"/><path class="cls-10" d="M391.92,298.76H88.56a2.49,2.49,0,0,1-1.49-.4.43.43,0,0,1,0-.75l22-17.29a7.74,7.74,0,0,1,4.54-1.19H366.85a7.73,7.73,0,0,1,4.54,1.19l22,17.29a.43.43,0,0,1,0,.75A2.49,2.49,0,0,1,391.92,298.76Zm-278.3-19.5a7.35,7.35,0,0,0-4.31,1.13l-22,17.29a.36.36,0,0,0,0,.63,2.11,2.11,0,0,0,1.26.34H391.92a2.11,2.11,0,0,0,1.26-.34.36.36,0,0,0,0-.63l-22-17.29a7.35,7.35,0,0,0-4.31-1.13Z"/></g><path class="cls-9" d="M125.7,281.53H112.9c-1.07,0-1.73-.53-1.2-1l.06,0a2,2,0,0,1,1.2-.32h12.79c1,0,1.7.5,1.24.93l0,0A2,2,0,0,1,125.7,281.53Z"/><path class="cls-9" d="M122.16,284.32H109.42c-1.07,0-1.73-.53-1.2-1l1.36-1.09a2,2,0,0,1,1.2-.32h12.57c1,0,1.7.5,1.24.93l-1.2,1.09A2,2,0,0,1,122.16,284.32Z"/><path class="cls-9" d="M128.49,287.23H105.83c-1.07,0-1.73-.53-1.2-1l1.52-1.22a2,2,0,0,1,1.2-.32h22.36c1,0,1.69.49,1.26.91l-1.23,1.22A1.91,1.91,0,0,1,128.49,287.23Z"/><path class="cls-9" d="M130.25,290.34H102c-1.07,0-1.73-.53-1.2-1l1.7-1.36a2,2,0,0,1,1.2-.32h27.91c1,0,1.68.48,1.27.9L131.52,290A1.88,1.88,0,0,1,130.25,290.34Z"/><path class="cls-9" d="M117,293.58H97.92c-1.07,0-1.73-.53-1.2-1l1.89-1.52a2,2,0,0,1,1.2-.32h18.8c1,0,1.69.49,1.25.92l-1.6,1.52A1.93,1.93,0,0,1,117,293.58Z"/><path class="cls-9" d="M107.66,297.55H93c-1.07,0-1.73-.53-1.2-1l2.76-2.22a2,2,0,0,1,1.2-.32h14.35c1,0,1.7.5,1.24.93l-2.43,2.22A2,2,0,0,1,107.66,297.55Z"/><path class="cls-9" d="M128.42,297.55H113.64c-1,0-1.7-.5-1.24-.92l2.38-2.22a1.94,1.94,0,0,1,1.24-.36h14.45c1,0,1.67.47,1.28.89l-2,2.22A1.85,1.85,0,0,1,128.42,297.55Z"/><path class="cls-9" d="M149.29,297.55H134.43c-1,0-1.66-.46-1.28-.88l2-2.22a1.84,1.84,0,0,1,1.28-.4h14.53c1,0,1.62.43,1.31.85l-1.66,2.22A1.75,1.75,0,0,1,149.29,297.55Z"/><path class="cls-9" d="M304.61,297.55H284.44c-.68,0-1.26-.23-1.37-.54l-.79-2.22c-.14-.39.51-.74,1.37-.74h19.74a1.62,1.62,0,0,1,1.34.48l1.22,2.22C306.18,297.16,305.51,297.55,304.61,297.55Z"/><path class="cls-9" d="M325.37,297.55h-15a1.63,1.63,0,0,1-1.34-.48l-1.27-2.22c-.23-.41.43-.8,1.34-.8h14.63a1.73,1.73,0,0,1,1.32.44l1.61,2.22C327,297.12,326.32,297.55,325.37,297.55Z"/><path class="cls-9" d="M366.85,297.55h-14.8a1.85,1.85,0,0,1-1.28-.39l-2-2.22c-.39-.42.28-.89,1.28-.89h14.47a1.94,1.94,0,0,1,1.24.36l2.38,2.22C368.55,297.05,367.88,297.55,366.85,297.55Z"/><path class="cls-9" d="M346.13,297.56H331.26a1.75,1.75,0,0,1-1.31-.43l-.38-.5c-.31-.42.36-.85,1.31-.85h14.79a1.84,1.84,0,0,1,1.28.39l.45.5C347.79,297.1,347.12,297.56,346.13,297.56Z"/><path class="cls-9" d="M387.55,297.56H372.87a2,2,0,0,1-1.24-.35l-.55-.5c-.47-.43.2-.93,1.24-.93h14.6a2,2,0,0,1,1.2.32l.63.5C389.28,297,388.61,297.56,387.55,297.56Z"/><path class="cls-9" d="M175.25,297.55H155.09c-.95,0-1.62-.43-1.32-.84l1.61-2.22a1.73,1.73,0,0,1,1.32-.44h19.73c.9,0,1.56.39,1.35.79l-1.18,2.22A1.6,1.6,0,0,1,175.25,297.55Z"/><path class="cls-9" d="M278.75,297.55H181c-.89,0-1.55-.38-1.35-.79l1.13-2.22a1.59,1.59,0,0,1,1.35-.49H278c.68,0,1.27.23,1.37.54l.74,2.22C280.25,297.2,279.6,297.55,278.75,297.55Z"/><path class="cls-9" d="M140.65,284.32H127.82c-1,0-1.7-.5-1.24-.92l1.17-1.09A1.94,1.94,0,0,1,129,282h12.67c1,0,1.67.47,1.28.89l-1,1.09A1.85,1.85,0,0,1,140.65,284.32Z"/><path class="cls-9" d="M159.16,284.32H146.25c-1,0-1.66-.46-1.28-.88l1-1.09a1.84,1.84,0,0,1,1.28-.39H160c1,0,1.62.43,1.31.85l-.82,1.09A1.75,1.75,0,0,1,159.16,284.32Z"/><path class="cls-9" d="M177.41,284.32h-13c-.95,0-1.62-.43-1.31-.84l.79-1.09a1.73,1.73,0,0,1,1.31-.44H178c.91,0,1.57.4,1.34.8l-.63,1.09A1.63,1.63,0,0,1,177.41,284.32Z"/><path class="cls-9" d="M195.9,284.32h-13c-.91,0-1.57-.39-1.34-.8l.6-1.09a1.62,1.62,0,0,1,1.34-.48h12.88c.87,0,1.52.36,1.36.76l-.44,1.09C197.14,284.1,196.57,284.32,195.9,284.32Z"/><path class="cls-9" d="M214.32,284.32H201.23c-.86,0-1.51-.36-1.37-.75l.42-1.09c.12-.31.69-.53,1.37-.53h12.92c.82,0,1.47.33,1.38.71l-.25,1.09C215.62,284.08,215,284.32,214.32,284.32Z"/><path class="cls-9" d="M232.77,284.32H219.67c-.82,0-1.46-.32-1.38-.7l.23-1.09c.07-.33.67-.58,1.38-.58h12.94c.78,0,1.41.3,1.39.66l-.06,1.09C234.14,284,233.53,284.32,232.77,284.32Z"/><path class="cls-9" d="M251.24,284.32H238.13c-.77,0-1.4-.29-1.39-.65l0-1.09c0-.35.63-.63,1.39-.63h12.95c.74,0,1.35.27,1.38.61l.13,1.09C252.67,284,252,284.32,251.24,284.32Z"/><path class="cls-9" d="M269.45,284.32h-13.1c-.73,0-1.34-.26-1.38-.6l-.15-1.09c-.05-.37.58-.68,1.38-.68h12.93c.7,0,1.28.24,1.37.56l.31,1.09C270.93,284,270.29,284.32,269.45,284.32Z"/><path class="cls-9" d="M287.9,284.32H274.83c-.69,0-1.27-.23-1.37-.55l-.34-1.09c-.12-.39.53-.73,1.37-.73h12.9c.65,0,1.22.21,1.36.51l.5,1.09C289.44,283.95,288.78,284.32,287.9,284.32Z"/><path class="cls-9" d="M306.63,284.32h-13a1.58,1.58,0,0,1-1.35-.5l-.53-1.09c-.2-.4.46-.78,1.35-.78h12.86a1.67,1.67,0,0,1,1.33.46l.7,1.09C308.22,283.91,307.55,284.32,306.63,284.32Z"/><path class="cls-9" d="M324.81,284.32h-13a1.69,1.69,0,0,1-1.33-.45l-.72-1.09c-.27-.41.4-.83,1.33-.83h12.79a1.78,1.78,0,0,1,1.3.42l.88,1.09C326.45,283.88,325.77,284.32,324.81,284.32Z"/><path class="cls-9" d="M147.49,287.23H134.18c-1,0-1.68-.48-1.26-.9l1.2-1.22a1.89,1.89,0,0,1,1.26-.38h13.13c1,0,1.64.45,1.29.87l-1,1.22A1.8,1.8,0,0,1,147.49,287.23Z"/><path class="cls-9" d="M166.51,287.23H153.12c-1,0-1.64-.45-1.3-.86l1-1.22a1.79,1.79,0,0,1,1.3-.42h13.21c.93,0,1.6.42,1.33.83l-.81,1.22A1.69,1.69,0,0,1,166.51,287.23Z"/><path class="cls-9" d="M185.25,287.23H171.79c-.93,0-1.59-.41-1.33-.82l.78-1.22a1.68,1.68,0,0,1,1.33-.46h13.27c.89,0,1.55.38,1.35.78l-.6,1.22A1.58,1.58,0,0,1,185.25,287.23Z"/><path class="cls-9" d="M204.24,287.23h-13.5c-.88,0-1.54-.38-1.36-.77l.57-1.22c.14-.29.7-.51,1.36-.51h13.32c.85,0,1.49.35,1.37.73l-.39,1.22C205.51,287,204.93,287.23,204.24,287.23Z"/><path class="cls-9" d="M223.15,287.23H209.62c-.84,0-1.49-.34-1.37-.73l.36-1.22c.09-.32.68-.55,1.37-.55h13.35c.8,0,1.44.31,1.38.68l-.18,1.22C224.49,287,223.88,287.23,223.15,287.23Z"/><path class="cls-9" d="M242.11,287.23H228.56c-.8,0-1.43-.31-1.38-.68l.15-1.22c0-.34.65-.6,1.38-.6h13.36c.76,0,1.38.28,1.39.63l0,1.22C243.51,286.94,242.88,287.23,242.11,287.23Z"/><path class="cls-9" d="M261.08,287.23H247.54c-.75,0-1.37-.28-1.39-.62l-.07-1.22c0-.36.61-.66,1.39-.66h13.36c.72,0,1.31.25,1.38.58l.25,1.22C262.54,286.9,261.9,287.23,261.08,287.23Z"/><path class="cls-9" d="M279.78,287.23H266.26c-.71,0-1.31-.25-1.38-.57l-.28-1.22c-.09-.38.56-.71,1.38-.71h13.34c.67,0,1.25.22,1.37.53l.46,1.22C281.29,286.87,280.64,287.23,279.78,287.23Z"/><path class="cls-9" d="M298.72,287.23H285.24c-.67,0-1.24-.22-1.36-.52l-.49-1.22c-.16-.39.5-.76,1.36-.76h13.3a1.62,1.62,0,0,1,1.34.48l.67,1.22C300.29,286.84,299.63,287.23,298.72,287.23Z"/><path class="cls-9" d="M318,287.23H304.54a1.63,1.63,0,0,1-1.34-.48l-.7-1.22c-.23-.41.43-.8,1.34-.8h13.24a1.73,1.73,0,0,1,1.32.44l.89,1.22C319.58,286.8,318.91,287.23,318,287.23Z"/><path class="cls-9" d="M337.7,286.1c.56.62-.18,1.13-1.63,1.13H324.94a5.06,5.06,0,0,1-3.5-1.15l-.15-.2c-.47-.63.33-1.15,1.78-1.15h10.76a5.75,5.75,0,0,1,3.65,1.13Z"/><path class="cls-9" d="M355.72,287.23H342.46a1.85,1.85,0,0,1-1.28-.39l-1.13-1.22c-.39-.42.28-.89,1.28-.89h13.08a1.94,1.94,0,0,1,1.24.36L357,286.3C357.42,286.73,356.75,287.23,355.72,287.23Z"/><path class="cls-9" d="M149.78,290.34H136c-1,0-1.67-.47-1.27-.89l1.28-1.36a1.87,1.87,0,0,1,1.27-.38h13.59c1,0,1.63.44,1.3.86l-1.08,1.36A1.77,1.77,0,0,1,149.78,290.34Z"/><path class="cls-9" d="M169.33,290.34H155.46c-1,0-1.63-.44-1.31-.85l1-1.36a1.76,1.76,0,0,1,1.31-.43h13.67c.92,0,1.59.41,1.33.82l-.84,1.36A1.66,1.66,0,0,1,169.33,290.34Z"/><path class="cls-9" d="M188.6,290.34H174.67c-.92,0-1.58-.4-1.34-.81l.81-1.36a1.65,1.65,0,0,1,1.34-.47h13.73c.88,0,1.54.37,1.36.77l-.61,1.36C189.82,290.12,189.26,290.34,188.6,290.34Z"/><path class="cls-9" d="M208.13,290.34h-14c-.87,0-1.53-.37-1.36-.76l.58-1.36c.13-.3.7-.52,1.36-.52H208.5c.83,0,1.48.34,1.38.72l-.37,1.36C209.42,290.1,208.83,290.34,208.13,290.34Z"/><path class="cls-9" d="M227.58,290.34h-14c-.83,0-1.47-.33-1.38-.71l.34-1.36c.08-.32.67-.57,1.38-.57h13.8c.79,0,1.42.3,1.39.67l-.14,1.36C228.93,290.07,228.32,290.34,227.58,290.34Z"/><path class="cls-9" d="M247.07,290.34h-14c-.79,0-1.41-.3-1.39-.66l.1-1.36c0-.34.64-.62,1.39-.62H247c.75,0,1.36.27,1.39.62l.1,1.36C248.48,290,247.86,290.34,247.07,290.34Z"/><path class="cls-9" d="M266.58,290.34h-14c-.74,0-1.35-.27-1.39-.61l-.13-1.36c0-.36.6-.67,1.39-.67h13.8c.71,0,1.3.24,1.38.57l.34,1.36C268.05,290,267.41,290.34,266.58,290.34Z"/><path class="cls-9" d="M285.81,290.34h-14c-.7,0-1.29-.24-1.38-.56l-.37-1.36c-.1-.38.54-.72,1.38-.72h13.77c.66,0,1.24.22,1.36.52l.57,1.36C287.33,290,286.68,290.34,285.81,290.34Z"/><path class="cls-9" d="M305.29,290.34H291.36c-.66,0-1.23-.21-1.36-.51l-.6-1.36c-.18-.4.48-.77,1.36-.77h13.73a1.64,1.64,0,0,1,1.34.47l.81,1.36C306.87,289.94,306.21,290.34,305.29,290.34Z"/><path class="cls-9" d="M325.08,290.34H311.21a1.66,1.66,0,0,1-1.33-.46l-.84-1.36c-.25-.41.41-.82,1.33-.82H324a1.76,1.76,0,0,1,1.31.43l1,1.36C326.71,289.9,326,290.34,325.08,290.34Z"/><path class="cls-9" d="M344.29,290.34h-13.8a1.77,1.77,0,0,1-1.3-.42l-1.08-1.36c-.33-.42.34-.86,1.3-.86H343a1.86,1.86,0,0,1,1.27.39l1.28,1.36C346,289.87,345.28,290.34,344.29,290.34Z"/><path class="cls-9" d="M137.13,293.58H122.89c-1,0-1.69-.49-1.25-.91l1.56-1.52a1.92,1.92,0,0,1,1.25-.37h14c1,0,1.66.46,1.29.88l-1.33,1.52A1.83,1.83,0,0,1,137.13,293.58Z"/><path class="cls-9" d="M157.25,293.58H142.93c-1,0-1.65-.45-1.29-.87l1.3-1.52a1.81,1.81,0,0,1,1.29-.41h14.09c.94,0,1.61.42,1.32.84l-1.07,1.52A1.72,1.72,0,0,1,157.25,293.58Z"/><path class="cls-9" d="M177.08,293.58H162.69c-.94,0-1.6-.42-1.32-.83l1-1.52a1.7,1.7,0,0,1,1.32-.45h14.16c.9,0,1.56.39,1.35.79l-.81,1.52A1.61,1.61,0,0,1,177.08,293.58Z"/><path class="cls-9" d="M197.17,293.58H182.74c-.89,0-1.55-.38-1.35-.79l.77-1.52a1.59,1.59,0,0,1,1.35-.49h14.21c.86,0,1.51.35,1.37.74l-.55,1.52C198.43,293.35,197.85,293.58,197.17,293.58Z"/><path class="cls-9" d="M217.19,293.58H202.71c-.85,0-1.5-.35-1.37-.74l.51-1.52c.11-.31.69-.54,1.37-.54h14.25c.81,0,1.45.32,1.38.7l-.28,1.52C218.51,293.33,217.91,293.58,217.19,293.58Z"/><path class="cls-9" d="M237.25,293.58H222.76c-.81,0-1.44-.32-1.38-.69l.25-1.52c.05-.33.66-.59,1.38-.59h14.27c.77,0,1.39.29,1.39.64l0,1.52C238.63,293.3,238,293.58,237.25,293.58Z"/><path class="cls-9" d="M257.33,293.58H242.83c-.76,0-1.38-.28-1.39-.64l0-1.52c0-.35.62-.64,1.39-.64h14.27c.73,0,1.33.26,1.38.59l.24,1.52C258.77,293.26,258.13,293.58,257.33,293.58Z"/><path class="cls-9" d="M277.11,293.58H262.64c-.72,0-1.32-.25-1.38-.59l-.28-1.52c-.07-.37.57-.69,1.38-.69h14.25c.69,0,1.27.23,1.37.54l.5,1.52C278.61,293.23,278,293.58,277.11,293.58Z"/><path class="cls-9" d="M297.17,293.58H282.73c-.68,0-1.26-.23-1.37-.54l-.54-1.52c-.14-.39.51-.74,1.37-.74H296.4a1.59,1.59,0,0,1,1.35.49l.77,1.52C298.72,293.2,298.06,293.58,297.17,293.58Z"/><path class="cls-9" d="M317.53,293.58H303.14a1.61,1.61,0,0,1-1.35-.49l-.81-1.52c-.21-.4.45-.79,1.35-.79H316.5a1.7,1.7,0,0,1,1.32.45l1,1.52C319.13,293.16,318.47,293.58,317.53,293.58Z"/><path class="cls-9" d="M337.29,293.58H323a1.72,1.72,0,0,1-1.32-.44l-1.07-1.52c-.29-.41.38-.84,1.32-.84H336a1.81,1.81,0,0,1,1.29.41l1.29,1.52C338.94,293.12,338.27,293.58,337.29,293.58Z"/><path class="cls-9" d="M382.58,293.58h-39.3a1.83,1.83,0,0,1-1.29-.4l-1.33-1.52c-.37-.42.3-.88,1.29-.88H380.7a2,2,0,0,1,1.2.32l1.89,1.52C384.32,293,383.65,293.58,382.58,293.58Z"/><path class="cls-9" d="M363.91,290.34H350.21a1.88,1.88,0,0,1-1.27-.38l-1.32-1.36c-.41-.42.26-.9,1.27-.9h13.5a2,2,0,0,1,1.23.35l1.52,1.36C365.62,289.83,365,290.34,363.91,290.34Z"/><path class="cls-9" d="M343.23,284.32H330.35a1.8,1.8,0,0,1-1.29-.41l-.91-1.09c-.35-.42.32-.87,1.29-.87h12.71a1.89,1.89,0,0,1,1.26.38l1.07,1.09C344.91,283.84,344.24,284.32,343.23,284.32Z"/><path class="cls-9" d="M372,284.75h-12.1c-1.09,0-1.82.14-1.63.31l2,1.87a6,6,0,0,0,2.37.32h1.94a2,2,0,0,1,1.23.34l2.73,2.39a6.18,6.18,0,0,0,2.47.34h7.8c1.14,0,1.88-.15,1.65-.34l-6.14-4.93A6.25,6.25,0,0,0,372,284.75Z"/><path class="cls-9" d="M371,284.32H349.1a1.91,1.91,0,0,1-1.26-.37l-1.1-1.09c-.43-.42.24-.91,1.26-.91h21.68a2,2,0,0,1,1.2.32l1.36,1.09C372.78,283.79,372.11,284.32,371,284.32Z"/><path class="cls-9" d="M144.23,281.53h-12.9c-1,0-1.7-.5-1.24-.92l0,0a1.94,1.94,0,0,1,1.24-.36h12.9c1,0,1.66.47,1.28.89l0,0A1.85,1.85,0,0,1,144.23,281.53Z"/><path class="cls-9" d="M163,281.53H150c-1,0-1.66-.46-1.28-.88l0,0a1.83,1.83,0,0,1,1.28-.4h13c.95,0,1.62.43,1.31.84l0,0A1.74,1.74,0,0,1,163,281.53Z"/><path class="cls-9" d="M181.48,281.53H168.42c-.94,0-1.61-.42-1.32-.84l0,0a1.72,1.72,0,0,1,1.32-.44H181.5c.91,0,1.57.39,1.34.8l0,0A1.62,1.62,0,0,1,181.48,281.53Z"/><path class="cls-9" d="M200.23,281.53H187.11c-.9,0-1.56-.39-1.35-.79l0,0a1.6,1.6,0,0,1,1.35-.49h13.11c.86,0,1.51.36,1.37.75l0,0C201.48,281.31,200.91,281.53,200.23,281.53Z"/><path class="cls-9" d="M218.73,281.53H205.57c-.85,0-1.5-.35-1.37-.74l0,0c.11-.31.69-.54,1.37-.54h13.15c.81,0,1.45.32,1.38.7v0C220,281.28,219.44,281.53,218.73,281.53Z"/><path class="cls-9" d="M237.46,281.53H224.28c-.81,0-1.44-.32-1.38-.69v0c.06-.33.66-.59,1.38-.59h13.17c.77,0,1.39.29,1.39.64v0C238.84,281.25,238.22,281.53,237.46,281.53Z"/><path class="cls-9" d="M255.9,281.53H242.73c-.76,0-1.38-.28-1.39-.64v0c0-.35.62-.64,1.39-.64H255.9c.73,0,1.33.26,1.38.59v0C257.35,281.21,256.71,281.53,255.9,281.53Z"/><path class="cls-9" d="M274.64,281.53H261.49c-.72,0-1.32-.25-1.38-.58v0c-.07-.37.57-.7,1.38-.7h13.15c.68,0,1.26.23,1.37.54l0,0C276.15,281.18,275.49,281.53,274.64,281.53Z"/><path class="cls-9" d="M293.1,281.53H280c-.68,0-1.25-.22-1.37-.53l0,0c-.14-.39.51-.75,1.37-.75h13.11a1.6,1.6,0,0,1,1.35.49l0,0C294.66,281.14,294,281.53,293.1,281.53Z"/><path class="cls-9" d="M311.8,281.53H298.73a1.62,1.62,0,0,1-1.34-.48l0,0c-.22-.4.44-.8,1.34-.8h13.06a1.72,1.72,0,0,1,1.32.44l0,0C313.41,281.11,312.74,281.53,311.8,281.53Z"/><path class="cls-9" d="M330.21,281.53h-13a1.73,1.73,0,0,1-1.31-.44l0,0c-.3-.41.37-.84,1.31-.84h13a1.83,1.83,0,0,1,1.28.4l0,0C331.86,281.07,331.19,281.53,330.21,281.53Z"/><path class="cls-9" d="M348.86,281.53H336a1.85,1.85,0,0,1-1.28-.39l0,0c-.38-.42.29-.89,1.28-.89h12.9a1.94,1.94,0,0,1,1.24.36l0,0C350.56,281,349.89,281.53,348.86,281.53Z"/><path class="cls-9" d="M367.26,281.53h-12.8a2,2,0,0,1-1.24-.35l0,0c-.46-.43.21-.93,1.24-.93h12.8a2,2,0,0,1,1.2.32l.06,0C369,281,368.32,281.53,367.26,281.53Z"/><path class="cls-2" d="M110.48,276.76a7,7,0,0,1-7-7V114.17a14.73,14.73,0,0,1,14.8-14.63H361.8a14.73,14.73,0,0,1,14.8,14.63V269.75a7,7,0,0,1-7,7Z"/><path class="cls-3" d="M361.8,100.47H118.26a13.79,13.79,0,0,0-13.87,13.7V269.75a6.09,6.09,0,0,0,6.09,6.09H369.59a6.09,6.09,0,0,0,6.09-6.09V114.17A13.79,13.79,0,0,0,361.8,100.47Z"/><circle class="cls-11" cx="239.28" cy="107.12" r="2.03"/><g id="Browser-Dark"><path class="cls-12" d="M360.8,128v-9.74a2.2,2.2,0,0,0-2.2-2.2H122.8a2.2,2.2,0,0,0-2.2,2.2V128Z"/><rect class="cls-13" x="120.61" y="128.05" width="240.19" height="17.76"/><path class="cls-14" d="M135.18,139.14c.18-.17,1.92-2,1.92-2a.47.47,0,0,0,0-.67s-1.74-1.83-1.92-2a.51.51,0,0,0-.69,0,.45.45,0,0,0,0,.67l1.6,1.67-1.6,1.67a.45.45,0,0,0,0,.67A.51.51,0,0,0,135.18,139.14Z"/><path class="cls-14" d="M127,134.52c-.18.17-1.92,2-1.92,2a.47.47,0,0,0,0,.67s1.74,1.83,1.92,2a.51.51,0,0,0,.69,0,.45.45,0,0,0,0-.67l-1.6-1.67,1.6-1.67a.45.45,0,0,0,0-.67A.51.51,0,0,0,127,134.52Z"/><path class="cls-15" d="M157.73,128.08c3.24,0,3.1-8.32,5.8-8.32h30.86c3.24,0,3.1,8.32,5.8,8.32Z"/><path class="cls-16" d="M194.45,124.47l-.51-.58.51-.58a.22.22,0,1,0-.31-.31l-.49.56-.49-.56a.22.22,0,1,0-.31.31l.51.58-.51.58a.22.22,0,1,0,.31.31l.49-.56.49.56a.22.22,0,1,0,.31-.31Z"/><path class="cls-13" d="M121.05,128.14c3.24,0,3.1-8.32,5.8-8.32h30.86c3.24,0,3.1,8.32,5.8,8.32Z"/><path class="cls-16" d="M157.59,124.87l-.51-.58.51-.58a.22.22,0,1,0-.31-.31l-.49.56-.49-.56a.22.22,0,0,0-.31.31l.51.58-.51.58a.22.22,0,1,0,.31.31l.49-.56.49.56a.22.22,0,1,0,.31-.31Z"/><g class="cls-17"><path class="cls-18" d="M146.1,134.25a2.34,2.34,0,0,1,2.33,2.28h.7l-1,1.17-1-1.17h.81a1.75,1.75,0,1,0-.71,1.47l.4.43a2.34,2.34,0,1,1-1.44-4.18Z"/></g><circle class="cls-19" cx="337.78" cy="122" r="2.47"/><circle class="cls-20" cx="346.12" cy="122" r="2.47"/><circle class="cls-21" cx="354.51" cy="122" r="2.47"/><path class="cls-22" d="M351.18,137H346a.52.52,0,0,0,0,1h5.15a.52.52,0,0,0,0-1ZM346,136h5.15a.52.52,0,0,0,0-1H346a.52.52,0,0,0,0,1Zm5.15,3H346a.52.52,0,0,0,0,1h5.15a.52.52,0,0,0,0-1Z"/><path class="cls-23" d="M337.43,141.08a1.3,1.3,0,0,1-1.3,1.3l-180.81-.44a1.3,1.3,0,0,1-1.3-1.3v-7.21a1.3,1.3,0,0,1,1.3-1.3l180.81.44a1.3,1.3,0,0,1,1.3,1.3Z"/><path class="cls-24" d="M159.91,134.22h-2.62a.07.07,0,0,0-.07.07v5.28a.07.07,0,0,0,.07.07h4a.07.07,0,0,0,.07-.07v-3.86Z"/><path class="cls-25" d="M159.91,134.22h0l1.44,1.49H160a.12.12,0,0,1-.09-.13c0-.11,0-1.35,0-1.35"/><text class="cls-26" transform="translate(164.26 138.27)"><tspan class="cls-27">k</tspan><tspan class="cls-28" x="2.02" y="0">k</tspan><tspan x="4.02" y="0">amalapirat.com</tspan></text><path class="cls-29" d="M141.15,124.51a.07.07,0,0,0,0,.1.07.07,0,0,0,.1,0l.39-.4a.07.07,0,0,0,0-.1l-.39-.4a.07.07,0,0,0-.1,0,.07.07,0,0,0,0,.1l.32.35Z"/><path class="cls-29" d="M141.63,124.51a.07.07,0,0,0,0,.1.07.07,0,0,0,.1,0l.39-.4a.07.07,0,0,0,0-.1l-.39-.4a.07.07,0,0,0-.1,0,.07.07,0,0,0,0,.1l.32.35Z"/></g><rect class="cls-30" x="120.63" y="145.87" width="240.24" height="120.71"/><polygon class="cls-1" points="360.87 159.7 120.63 155.55 120.63 145.87 360.87 145.87 360.87 159.7"/><text class="cls-31" transform="translate(160.04 153.89)"><tspan class="cls-28">A</tspan><tspan x="3.11" y="0">bout</tspan></text><polygon class="cls-23" points="130.47 154.32 127.92 151.58 130.38 148.83 129.18 148.83 126.69 151.58 129.18 154.32 130.47 154.32"/><polygon class="cls-23" points="132.88 154.32 130.33 151.58 132.79 148.83 131.6 148.83 129.1 151.58 131.59 154.32 132.88 154.32"/><polygon class="cls-32" points="132.88 154.32 130.33 151.58 132.79 148.83 131.6 148.83 129.1 151.58 131.59 154.32 132.88 154.32"/><rect class="cls-23" x="125.75" y="148.83" width="0.94" height="5.5"/><rect class="cls-32" x="125.75" y="148.83" width="0.94" height="5.5"/><path class="cls-33" d="M332,150.89a3.83,3.83,0,0,0-1.4-1.4,3.87,3.87,0,0,0-3.86,0,3.83,3.83,0,0,0-1.4,1.4,3.85,3.85,0,0,0,2.11,5.58.22.22,0,0,0,.2,0,.2.2,0,0,0,.07-.15s0-.1,0-.27,0-.32,0-.45l-.12,0-.28,0-.35,0a.78.78,0,0,1-.34-.15.64.64,0,0,1-.22-.31l-.05-.12a1.25,1.25,0,0,0-.16-.26.6.6,0,0,0-.22-.19l0,0-.07-.06,0-.07s0,0,0-.06a.32.32,0,0,1,.15,0h.1a.73.73,0,0,1,.25.12.81.81,0,0,1,.24.26.88.88,0,0,0,.28.31.59.59,0,0,0,.33.11l.29,0a1,1,0,0,0,.23-.08.81.81,0,0,1,.25-.52,3.43,3.43,0,0,1-.51-.09,2,2,0,0,1-.47-.2,1.35,1.35,0,0,1-.4-.34,1.61,1.61,0,0,1-.26-.53,2.5,2.5,0,0,1-.1-.75,1.46,1.46,0,0,1,.4-1,1.35,1.35,0,0,1,0-1,.7.7,0,0,1,.43.07,3,3,0,0,1,.42.19l.21.14a3.62,3.62,0,0,1,1.92,0l.19-.12a2.7,2.7,0,0,1,.46-.22.66.66,0,0,1,.41-.06,1.33,1.33,0,0,1,0,1,1.46,1.46,0,0,1,.4,1,2.53,2.53,0,0,1-.1.75,1.55,1.55,0,0,1-.27.53,1.4,1.4,0,0,1-.41.33,2,2,0,0,1-.47.2,3.43,3.43,0,0,1-.51.09.89.89,0,0,1,.26.71v1.06a.2.2,0,0,0,.06.15.22.22,0,0,0,.2,0,3.86,3.86,0,0,0,2.11-5.58Z"/><path class="cls-33" d="M341.21,148.94a3.86,3.86,0,1,0,3.86,3.86A3.86,3.86,0,0,0,341.21,148.94Zm.44,5a1.53,1.53,0,0,1-.86.57,1.87,1.87,0,0,1-.57.06,1.7,1.7,0,0,1-.94-.33,1.74,1.74,0,0,1-.69-1,1.66,1.66,0,0,1,0-.47,1.75,1.75,0,0,1,1.33-1.6,1.31,1.31,0,0,1,.29,0h.17a1.66,1.66,0,0,1,.83.23,2.18,2.18,0,0,1,.31.23L341,152a1,1,0,0,0-.52-.25,1,1,0,0,0-1.15.81,1,1,0,0,0,0,.32,1.06,1.06,0,0,0,.72.91,1,1,0,0,0,.38,0,1,1,0,0,0,.51-.16.8.8,0,0,0,.34-.53h-.94s0-.46,0-.68v0H342A1.88,1.88,0,0,1,341.66,153.92Zm1.83-1v.61H343v-.61h-.61v-.48H343v-.61h.48v.61h.61v.48Z"/><path class="cls-33" d="M352.47,148.71a3.86,3.86,0,1,0,3.86,3.86A3.86,3.86,0,0,0,352.47,148.71Zm-1,5.76h-.84v-2.71h.84Zm-.42-3.08a.49.49,0,1,1,.49-.49A.49.49,0,0,1,351.06,151.39Zm3.58,3.08h-.84v-1.32c0-.31,0-.72-.44-.72s-.51.34-.51.7v1.34H352v-2.71h.81v.37h0a.89.89,0,0,1,.8-.44c.85,0,1,.56,1,1.29Z"/><text class="cls-34" transform="translate(219.41 190.59)">Hello<tspan class="cls-35" x="17.11" y="0"> </tspan><tspan class="cls-36" x="18.8" y="0">W</tspan><tspan x="25.46" y="0">orld !</tspan><tspan class="cls-37"><tspan x="-40.22" y="12.72">I’m Ki</tspan><tspan class="cls-38" x="-13.79" y="12.72">t</tspan><tspan x="-10.56" y="12.72">tichote </tspan><tspan class="cls-39" x="25.48" y="12.72">K</tspan><tspan x="32.01" y="12.72">amalapi</tspan><tspan class="cls-38" x="70.41" y="12.72">r</tspan><tspan class="cls-40" x="74.1" y="12.72">a</tspan><tspan x="79.65" y="12.72">t</tspan></tspan></text><text class="cls-41" transform="translate(177.8 220.92)">I’m a designe<tspan class="cls-42" x="28.57" y="0">r</tspan><tspan x="29.86" y="0">, develope</tspan><tspan class="cls-42" x="52.06" y="0">r</tspan><tspan x="53.35" y="0">. I create impactful design that t</tspan><tspan x="2.21" y="5.69">help change the world. blah blah blah I’m so cool hehe</tspan><tspan x="-0.87" y="11.38">I love sushi ramen tokatsu ninjin tamanegi </tspan><tspan class="cls-43" x="90.88" y="11.38">k</tspan><tspan x="93.39" y="11.38">omaneji yeah</tspan></text><text class="cls-44" transform="matrix(0.95, 0.32, -0.32, 0.95, 316.18, 248.44)">$(#)</text><text class="cls-45" transform="translate(150.52 193.07) rotate(-13.64)">&lt;&gt;</text><text class="cls-46" transform="translate(150.52 193.07) rotate(-13.64)">&lt;&gt;</text><text class="cls-47" transform="translate(315.75 204.41) rotate(-26.76)">{ }</text><text class="cls-48" transform="translate(156.4 249) rotate(11.61)">Ai</text><text class="cls-31" transform="translate(141.64 153.86)"><tspan class="cls-49">P</tspan><tspan class="cls-50" x="2.67" y="0">r</tspan><tspan x="4.29" y="0">ojects</tspan></text><path class="cls-33" d="M318.65,150.16a3.85,3.85,0,1,0,1.13,2.72A3.84,3.84,0,0,0,318.65,150.16Zm-2.72-.55a1,1,0,1,1-1,1A1,1,0,0,1,315.92,149.6Zm-1.6,2.72,1.29-.52.31.36.31-.36,1.29.52v.59h-3.21Zm1.06,3.59a1.29,1.29,0,0,1-.52.1,1.25,1.25,0,0,1-.5-.09,1.08,1.08,0,0,1-.37-.26,1.15,1.15,0,0,1-.23-.39,1.46,1.46,0,0,1-.08-.5,1.36,1.36,0,0,1,.09-.5,1.16,1.16,0,0,1,.25-.39,1.12,1.12,0,0,1,.38-.26,1.29,1.29,0,0,1,.49-.09l.26,0,.23.07.19.1.16.13-.19.26,0,0-.07,0h-.06l-.06,0-.07,0-.09,0-.12,0h-.15a.62.62,0,0,0-.26.05.56.56,0,0,0-.2.15.7.7,0,0,0-.13.24,1.09,1.09,0,0,0,0,.33,1,1,0,0,0,.05.33.73.73,0,0,0,.14.24.59.59,0,0,0,.2.15.61.61,0,0,0,.25.05H315l.12,0,.1,0,.1-.07,0,0h.09l0,0,.22.24A.93.93,0,0,1,315.38,155.91Zm1.82.07h-.51l-1-2.43h.45a.19.19,0,0,1,.12,0,.22.22,0,0,1,.07.09l.47,1.3.07.19.06.21q0-.11.05-.21l.06-.19.47-1.3a.21.21,0,0,1,.07-.08.18.18,0,0,1,.12,0h.46Z"/></g></svg>