<svg xmlns="http://www.w3.org/2000/svg" viewBox="0 0 489.22 378.03"><defs><style>.cls-1,.cls-28{fill:#f7290e;}.cls-2{fill:#d1d3d4;}.cls-3{fill:#34363a;}.cls-4{fill:#edece8;}.cls-5,.cls-9{fill:#070606;}.cls-5,.cls-8{opacity:0.3;}.cls-6{fill:#bbc1c5;}.cls-7{fill:#32354c;}.cls-10{fill:#63aa29;}.cls-11{fill:#dca031;}.cls-12{fill:#db413e;}.cls-13{fill:#999189;}.cls-14,.cls-17,.cls-18,.cls-23,.cls-43{fill:#fff;}.cls-15{fill:#dedbd4;}.cls-16{fill:#b8b3aa;}.cls-17{stroke:#fff;stroke-miterlimit:10;}.cls-18{font-size:5.26px;font-family:KozGoPr6N-Bold-83pv-RKSJ-H, Kozuka Gothic Pr6N;}.cls-19{letter-spacing:-0.07em;}.cls-20{letter-spacing:-0.15em;}.cls-21{letter-spacing:-0.27em;}.cls-22{letter-spacing:-0.09em;}.cls-23,.cls-28{font-size:3.88px;font-family:MyriadPro-Regular, Myriad Pro;}.cls-24{letter-spacing:0em;}.cls-25{letter-spacing:-0.01em;}.cls-26{letter-spacing:0em;}.cls-27{letter-spacing:0.01em;}.cls-29{letter-spacing:-0.01em;}.cls-30{letter-spacing:0em;}.cls-31{letter-spacing:-0.08em;}.cls-32{letter-spacing:0.02em;}.cls-33{letter-spacing:-0.01em;}.cls-34,.cls-43{font-size:4.87px;}.cls-34{fill:#666;}.cls-34,.cls-36{font-family:BrandonGrotesque-Light, Brandon Grotesque;}.cls-35{letter-spacing:0.01em;}.cls-36{font-size:5.13px;}.cls-37{letter-spacing:-0.03em;}.cls-38{letter-spacing:-0.01em;}.cls-39{letter-spacing:0em;}.cls-40{letter-spacing:0.02em;}.cls-41{letter-spacing:-0.01em;}.cls-42{fill:#ed1c24;}.cls-43{font-family:BrandonGrotesque-Black, Brandon Grotesque;letter-spacing:-0.02em;}.cls-44{letter-spacing:0em;}.cls-45{fill:#d1cce5;}.cls-45,.cls-46{fill-rule:evenodd;}.cls-46{fill:#66646d;}</style></defs><title>tedxynu-website</title><g id="background"><rect class="cls-1" width="489.22" height="378.03"/></g><g id="Text"><path class="cls-2" d="M102.81,72H393.55a17.31,17.31,0,0,1,17.31,17.31v192.8a17.3,17.3,0,0,1-17.3,17.3H102.81a17.31,17.31,0,0,1-17.31-17.31V89.34A17.31,17.31,0,0,1,102.81,72Z"/><path class="cls-3" d="M397.05,102.31v-12a2.71,2.71,0,0,0-2.71-2.71H103.15a2.71,2.71,0,0,0-2.71,2.71v12Z"/><rect class="cls-4" x="100.43" y="102.31" width="296.62" height="21.93"/><path class="cls-5" d="M118.44,116c.22-.21,2.37-2.47,2.37-2.47a.58.58,0,0,0,0-.83s-2.15-2.26-2.37-2.47a.63.63,0,0,0-.85,0,.56.56,0,0,0,0,.83l2,2.06-2,2.06a.56.56,0,0,0,0,.83A.63.63,0,0,0,118.44,116Z"/><path class="cls-5" d="M108.38,110.31c-.22.22-2.37,2.47-2.37,2.47a.58.58,0,0,0,0,.83s2.15,2.26,2.37,2.47a.63.63,0,0,0,.85,0,.56.56,0,0,0,0-.83l-2-2.06,2-2.06a.56.56,0,0,0,0-.83A.63.63,0,0,0,108.38,110.31Z"/><path class="cls-6" d="M146.28,102.35c4,0,3.83-10.28,7.16-10.28h38.11c4,0,3.83,10.28,7.16,10.28Z"/><path class="cls-7" d="M191.63,97.89l-.63-.72.63-.72a.27.27,0,1,0-.39-.39l-.61.69-.61-.69a.27.27,0,1,0-.39.39l.63.72-.63.72a.27.27,0,1,0,.39.39l.61-.69.61.69a.27.27,0,1,0,.39-.39Z"/><path class="cls-4" d="M101,102.42c4,0,3.83-10.28,7.16-10.28h38.11c4,0,3.83,10.28,7.16,10.28Z"/><path class="cls-7" d="M146.11,98.39l-.63-.72.63-.72a.27.27,0,1,0-.39-.39l-.61.69-.61-.69a.27.27,0,1,0-.39.39l.63.72-.63.72a.27.27,0,1,0,.39.39l.61-.69.61.69a.27.27,0,1,0,.39-.39Z"/><g class="cls-8"><path class="cls-9" d="M131.92,110a2.88,2.88,0,0,1,2.88,2.82h.87l-1.3,1.45-1.3-1.45h1a2.16,2.16,0,1,0-.88,1.82l.5.53a2.89,2.89,0,1,1-1.77-5.17Z"/></g><circle class="cls-10" cx="368.62" cy="94.84" r="3.04"/><circle class="cls-11" cx="378.93" cy="94.84" r="3.04"/><circle class="cls-12" cx="389.29" cy="94.84" r="3.04"/><path class="cls-13" d="M385.17,113.33h-6.36a.64.64,0,0,0,0,1.25h6.36a.64.64,0,0,0,0-1.25Zm-6.36-1.25h6.36a.64.64,0,0,0,0-1.25h-6.36a.64.64,0,0,0,0,1.25Zm6.36,3.76h-6.36a.64.64,0,0,0,0,1.25h6.36a.64.64,0,0,0,0-1.25Z"/><path class="cls-14" d="M368.2,118.4a1.6,1.6,0,0,1-1.6,1.6l-223.29-.54a1.6,1.6,0,0,1-1.6-1.6v-8.91a1.6,1.6,0,0,1,1.6-1.6l223.29.54a1.6,1.6,0,0,1,1.6,1.6Z"/><path class="cls-15" d="M149,109.93h-3.23a.09.09,0,0,0-.08.09v6.52a.09.09,0,0,0,.08.09h4.92a.09.09,0,0,0,.08-.09v-4.77Z"/><path class="cls-16" d="M149,109.94h0l1.77,1.84-1.65,0a.14.14,0,0,1-.12-.16c0-.14,0-1.67,0-1.67"/><rect x="100.43" y="151.13" width="296.62" height="129.81"/><path d="M313,210.89c3.22,0,3.22-5,0-5s-3.22,5,0,5Z"/><path d="M321.29,199.67c-3.4-.32-7.33,1.21-7.25,5.22a4.22,4.22,0,0,0,7.19,2.83l-3.93-3c-1.34,2.13-3.53,5.46-.46,7.27,2.62,1.55,5.64.25,8-1.2l-3.67-2.82c-1.55,4.18,3.87,7.09,6.8,4,2.2-2.34-1.33-5.89-3.54-3.54l1.56.89c.77-2.07-1.91-3.92-3.67-2.82a12.93,12.93,0,0,1-1.51.87,9.63,9.63,0,0,0-1.16.35q-.68,0,.28.91.33,1.64.73.33a8,8,0,0,0,1-1.69c1.52-2.42-1.93-5-3.93-3q.9,1.27,1.38.57a1.64,1.64,0,0,1,.37-.11c.59,0,1.23,0,1.84,0,3.2.3,3.18-4.7,0-5Z"/><path class="cls-14" d="M201.84,195a101.25,101.25,0,0,0,.65,19.51c.21,1.57,2.71,1.59,2.5,0a101.25,101.25,0,0,1-.65-19.51c.1-1.61-2.4-1.6-2.5,0Z"/><path class="cls-14" d="M204.67,201.54a16,16,0,0,1,2.81-5.56c3.25-3.53,9.21-1.24,4.91,4.41-1.77,2.33-5,4.06-7.53,5.39-1.44.75-.17,2.84,1.26,2.16a18.76,18.76,0,0,1,3.06-1.25q5.34-1.5,1.65,4.48c-1,.6-4.39.68-5.65,1.07-1.53.47-.88,2.89.66,2.41,3.25-1,12.3-1.21,10.34-7.23-1.66-5.09-7.89-3.28-11.32-1.65l1.26,2.16c4.08-2.14,15-9,9.35-14.74-5.77-5.85-11.52,3-13.21,7.67-.55,1.52,1.87,2.17,2.41.66Z"/><path class="cls-14" d="M219.59,200l1.14,12.66,2.46-.33a12.76,12.76,0,0,1,0-5.48c.2-.9,1.43-5.21,3.05-3.95,1.26,1,3-.78,1.77-1.77-2-1.59-4.41-.84-5.77,1.3-2,3.09-2.15,7.08-1.42,10.56.28,1.36,2.58,1.08,2.46-.33L222.09,200c-.14-1.59-2.65-1.6-2.5,0Z"/><path class="cls-14" d="M229.94,204c1.77,4,6.83,2,8.28-1.07.73-1.58,1.1-3.75,0-5.23s-3.16-1.43-4.7-.6c-3.53,1.9-5.17,6.69-2.65,10a5.46,5.46,0,0,0,9-.34c.84-1.38-1.32-2.63-2.16-1.26a2.93,2.93,0,0,1-4.43.62,4,4,0,0,1-.31-5.3,3.83,3.83,0,0,1,2.25-1.74c1.3-.15,1.29,1,1,2-.45,1.58-3,4.12-4.12,1.59-.65-1.47-2.8-.2-2.16,1.26Z"/><path class="cls-14" d="M243.76,199.8a5.69,5.69,0,0,1,2.57-2.75c1.83-.77,2.87.38,3,2.18.15,2.49-.06,5.06-.09,7.55a1.26,1.26,0,0,0,2.33.63c3-5.36-4.63-10.56-8.14-5.44a4.2,4.2,0,0,0,1.22,5.93c2.89,1.75,5.86-.49,7.64-2.68,1-1.24-.75-3-1.77-1.77a7.72,7.72,0,0,1-2.27,2.17c-1.55.79-3.58,0-2.85-1.9,1.16-2.93,5.67-.53,4,2.42l2.33.63c0-2.62.2-5.28.09-7.89a4.49,4.49,0,0,0-2-3.91c-3.34-2-6.67.69-8.25,3.56-.78,1.41,1.38,2.67,2.16,1.26Z"/><path class="cls-14" d="M257.24,189.64l-.45,16.28a1.25,1.25,0,0,0,2.5,0l.45-16.28a1.25,1.25,0,0,0-2.5,0Z"/><path class="cls-14" d="M255.55,196.64l6.42-1.26c1.58-.31.91-2.72-.66-2.41l-6.42,1.26c-1.58.31-.91,2.72.66,2.41Z"/><path class="cls-14" d="M265.51,185.89l-1.15,16.33,2.46-.33a9.24,9.24,0,0,1,.18-4.34,8.78,8.78,0,0,1,1.18-2.44q1.25-2.79,3.49-1c2.26.85,2.14,1.34,2,3.56-.06,1.29-.19,2.55-.13,3.85l2.33-.63-.25-.36c-.92-1.31-3.08-.06-2.16,1.26l.25.36c.66.95,2.38.7,2.33-.63-.15-3.66,1.06-11.65-5.15-11.06-5.49.52-7.28,7.69-6.5,12.11.26,1.46,2.36,1,2.46-.33L268,185.89c.11-1.61-2.39-1.6-2.5,0Z"/><path class="cls-14" d="M276.85,194.87c3.29,1.78,8.59,1.11,10-2.92a3.27,3.27,0,0,0-1.63-4.14c-1.82-.86-3.79,0-5.22,1.19-3.11,2.53-4.2,7.53-.79,10.32,3.64,3,8.41.72,11.32-2.09,1.16-1.12-.61-2.89-1.77-1.77a8.38,8.38,0,0,1-4.78,2.67c-2.59.29-4.91-1.52-4.33-4.29a5.19,5.19,0,0,1,1.34-2.39,6.16,6.16,0,0,1,1.48-1.16l1.52,1.66c-.08.64-1.71,1.15-2.3,1.29a4.87,4.87,0,0,1-3.54-.54c-1.41-.77-2.68,1.39-1.26,2.16Z"/><path class="cls-14" d="M201.76,230.77l2.3,16.57c.21,1.48,2.35,1,2.46-.33l0-.49c.13-1.6-2.37-1.59-2.5,0l0,.49,2.46-.33-2.3-16.57c-.22-1.59-2.63-.91-2.41.66Z"/><path class="cls-14" d="M197.71,238.57l10.5-2.13c1.58-.32.91-2.73-.66-2.41L197,236.16c-1.58.32-.91,2.73.66,2.41Z"/><path class="cls-14" d="M210.32,225.73,212,245l2.46-.33c-.45-3-.67-6.89,2-8.7q1.74-2.07,1.51.12.15,1.28.26,2.56c.15,1.49.28,3,.43,4.48s2.65,1.6,2.5,0c-.27-2.82.53-13-5-11.35-4.77,1.38-4.66,9.82-4.11,13.55.21,1.38,2.58,1.07,2.46-.33l-1.73-19.26c-.14-1.59-2.64-1.6-2.5,0Z"/><path class="cls-14" d="M224,236.2c3.17.83,8.41,1.37,9.43-2.88.93-3.9-3.44-5.56-6.27-3.56s-5.54,6.56-3.25,9.77c2.45,3.43,7,1.87,10.05.37,1.44-.71.18-2.86-1.26-2.16-1.62.79-3.66,1.87-5.5,1.21-2.47-.89-1.61-3.43-.47-5.06a9,9,0,0,1,1.62-1.89c1.31-1.05,3.81-.34,2.26,1.48-1.41,1.65-4.21.78-5.93.33a1.25,1.25,0,0,0-.66,2.41Z"/><path class="cls-14" d="M244.54,221.75l.62-.85-2.33-.63L242.55,240a1.26,1.26,0,0,0,2.46.33l.21-1c.33-1.57-2.08-2.24-2.41-.66l-.21,1,2.46.33.27-19.71a1.26,1.26,0,0,0-2.33-.63l-.62.85c-.95,1.3,1.22,2.55,2.16,1.26Z"/><path class="cls-14" d="M243.42,223l11.31-3.76c1.52-.51.87-2.92-.66-2.41l-11.31,3.76c-1.52.51-.87,2.92.66,2.41Z"/><path class="cls-14" d="M244.89,230.37l7.36-1.29c1.58-.28.91-2.69-.66-2.41L244.23,228c-1.58.28-.91,2.69.66,2.41Z"/><path class="cls-14" d="M255.75,224.56c-.62,3.41-1.75,12.78,4.12,12.43s6.3-9.06,5.38-13.13c-.33-1.47-2.32-1-2.46.33A24.49,24.49,0,0,0,264,234.72c.51,1.52,2.93.86,2.41-.66a22.8,22.8,0,0,1-1.1-9.87l-2.46.33a12.25,12.25,0,0,1,.18,4.88,11.34,11.34,0,0,1-.84,2.74c-.56,1.19-.83,1.55-2.21,1.79s-1.55,0-1.94-1.29a9.09,9.09,0,0,1-.24-2.14,23.42,23.42,0,0,1,.38-5.28c.28-1.57-2.12-2.25-2.41-.66Z"/><path class="cls-14" d="M271.59,218.08l-.18,15.74c0,1.65,2.32,1.56,2.5,0l.14-1.25c.18-1.6-2.32-1.58-2.5,0l-.14,1.25h2.5l.18-15.74a1.25,1.25,0,0,0-2.5,0Z"/><path class="cls-14" d="M269.63,224l6.81-1.32c1.58-.31.91-2.72-.66-2.41L269,221.58c-1.58.31-.91,2.72.66,2.41Z"/><path class="cls-14" d="M277.58,220.23c.36,2.78-1.16,5.7,0,8.41a4.22,4.22,0,0,0,4.27,2.7c2.07-.28,3.23-2.2,4-3.93a28.14,28.14,0,0,0,2.37-8.49l-2.46.33,1.33,8.66c.24,1.59,2.65.91,2.41-.66l-1.33-8.66c-.23-1.52-2.3-.93-2.46.33-.34,2.73-1.09,7.29-3.23,9.26-2.66,2.46-2.92-2.25-2.71-3.74a15,15,0,0,0,.27-4.23c-.2-1.57-2.7-1.59-2.5,0Z"/><path class="cls-14" d="M291.28,217.18l.51,11.37,2.46-.33a11.9,11.9,0,0,1,.5-5.69c.51-1.46,2.39-4.51,4.09-2.4,1,1.25,2.77-.52,1.77-1.77-1.83-2.27-5-1.54-6.71.5-2.24,2.72-2.55,6.68-2.07,10,.2,1.4,2.52,1.06,2.46-.33l-.51-11.37c-.07-1.6-2.57-1.61-2.5,0Z"/><path class="cls-14" d="M302.34,221.19c1.93.67,4.21,1.36,6.18.41a4.11,4.11,0,0,0,2.48-3.92c-.44-4-5.49-3.41-7.63-1.31a7.26,7.26,0,0,0-.7,9.81,6.28,6.28,0,0,0,9.57,0c1-1.23-.74-3-1.77-1.77-2.68,3.22-7.58.58-6.87-3.42.28-1.57,1.48-3.51,3.14-3.85q1.86-.46,1.26,1.81l-1.47.59a8.28,8.28,0,0,1-3.53-.79c-1.52-.53-2.18,1.88-.66,2.41Z"/><path class="cls-1" d="M301.06,191.83a49.78,49.78,0,0,1,6-9.6.64.64,0,0,0,0-.88c-.28-.26-1.77-.85-1.85-1-.54-1.16,1.75-1.86,2.36-2a13.06,13.06,0,0,1,3.63-.44c1.43.14,3.68,1.23,4.4,2.59.38.71.27,2.77.32,3.73a54.69,54.69,0,0,1-.15,6.68l1.07-.44c-1.21-1.37-4.46-4.65-6.64-4-2,.63-3.45,5.15-4.37,6.81-.39.7.69,1.33,1.08.63a35.6,35.6,0,0,1,2.71-4.87c1.13-1.41,1.8-1.26,3.24-.4a12.42,12.42,0,0,1,3.09,2.67c.39.44,1,.06,1.07-.44a53.08,53.08,0,0,0,0-8.5c-.11-1.35-.13-3-1-4.14-2.18-3-8.12-1.54-11-.55-1.46.51-3.35,1.86-1.58,3.31,1.55,1.27,2.34.55.77,2.73A48.8,48.8,0,0,0,300,191.2c-.35.72.73,1.36,1.08.63Z"/><path class="cls-1" d="M240.36,174.09c6.93,1.62,15.56.1,16.51-8.26l-1.23.17a7.57,7.57,0,0,0,5.36,6.24c4.16,1.48,7.64-.33,11.46-1.81,2.6-1,2.1-.47,3.45,1.58a11.67,11.67,0,0,0,2.82,2.92,11.89,11.89,0,0,0,10.07,1.91c.78-.19.45-1.39-.33-1.21a10.46,10.46,0,0,1-12.82-7.51.63.63,0,0,0-.92-.37c-2.77,1.58-5.63,3.25-8.85,3.63-3.93.46-8.4-1.23-9-5.7-.11-.76-1.16-.47-1.23.17-.87,7.69-9.06,8.42-14.92,7.05-.78-.18-1.12,1-.33,1.21Z"/><path class="cls-14" d="M176.71,201.47a9.41,9.41,0,0,1,4.32,4.36c.75,1.64,2.42,7.27-1.26,7.56l.44,1.07q5.16-3.07,2.34,4a.63.63,0,0,0,.15,1.14c1.56.36,5.39,1,6.39,2.46l.38,7.52a3.7,3.7,0,0,1-4,1.54c-.62-.51-1.51.37-.88.88,3.14,2.57,6.75-1.79,7.75-4.76,1.87-5.55-5.21-7.91-9.34-8.85l.15,1.14c1.89-1.18,4.69-3.34,3-5.89-1.44-2.13-5.3-1.7-6.83-.11a.63.63,0,0,0,.44,1.07c3-.24,3.64-3.25,3.4-5.9a10.47,10.47,0,0,0-5.83-8.35c-.71-.38-1.34.7-.63,1.08Z"/><path class="cls-1" d="M200.63,184.9l2.07-6.77c.2-.64.27-2.34,1.43-1.63.44.27.79,1.69,1,2.16,1.22,2.54,2.78,4.85,5.36,6.15l.48-1.14a25.18,25.18,0,0,1-10.83-8l-.28,1L210.69,175l-.71-.92a22.39,22.39,0,0,1-8.78,8.77c-.7.39-.07,1.47.63,1.08a23.63,23.63,0,0,0,9.23-9.22.63.63,0,0,0-.71-.92l-10.81,1.67c-.52.08-.53.72-.28,1a26.34,26.34,0,0,0,11.38,8.34c.66.25,1.11-.83.48-1.14a10.77,10.77,0,0,1-4.63-5.13c-.58-1.15-1-3.21-2.37-3.75-1-.4-1.61.17-2,1-1.26,2.63-1.82,5.91-2.68,8.7-.24.77,1,1.1,1.21.33Z"/><path class="cls-1" d="M221.17,273.05a40,40,0,0,1-.44-13.51l-1,.28a80,80,0,0,1,7.83,11.24l.54-.94a21.23,21.23,0,0,1-6.54-1.38,19.61,19.61,0,0,1-2.92-1.46q-.63-.37-1.23-.8-2.13-.74-.64-2.39c.7-1.64,1.15-1.61,2.66-2.14l3.12-1.08c2.08-.71,4.18-1.39,6.28-2l-.61-1a34,34,0,0,0-6.81,10.52c-.31.74.9,1.07,1.21.33a32.42,32.42,0,0,1,6.48-10,.63.63,0,0,0-.61-1c-3.83,1.2-7.76,2.34-11.47,3.87-1.47.6-3,1.45-2.71,3.29.35,2,3.41,3.51,5,4.3a22.21,22.21,0,0,0,8.8,2.29.63.63,0,0,0,.54-.94,81.94,81.94,0,0,0-8-11.5.63.63,0,0,0-1,.28,42,42,0,0,0,.44,14.17c.16.79,1.36.45,1.21-.33Z"/><path class="cls-1" d="M279.55,247.77a7.67,7.67,0,0,1-.91,9.94.63.63,0,0,0,.28,1c4.16.78,8.8-1.78,9.27-6.25.44-4.12-3.76-7.79-7.58-5.26-.67.44,0,1.53.63,1.08,3.62-2.4,6.63,2,5.39,5.36a6.57,6.57,0,0,1-7.37,3.86l.28,1a8.93,8.93,0,0,0,1.11-11.46c-.46-.66-1.54,0-1.08.63Z"/><path class="cls-1" d="M328.68,229.12a6,6,0,0,0-8.47-.29c-2.51,2.41-1.7,6.57.85,8.62,2.91,2.34,7.26,1.19,9.29-1.76,1.85-2.68,1.16-7.31-2.62-7.6-.8-.06-.8,1.19,0,1.25,4,.31,2.18,5.68.14,7.09a5,5,0,0,1-7-1c-1.34-2-1.27-4.8.89-6.17a4.75,4.75,0,0,1,6.07.78c.53.61,1.41-.28.88-.88Z"/><path class="cls-1" d="M172,221.23a4.71,4.71,0,0,0-5.76-5.13,6.12,6.12,0,0,0-4,7.86c3.15,8.43,17.4-2.61,10.7-7.82-.63-.49-1.52.39-.88.88,4.38,3.4-3.26,10.73-7.36,8.11-2.33-1.49-1.8-5-.1-6.71,2.09-2.11,6.7-1.1,6.18,2.47-.11.79,1.09,1.13,1.21.33Z"/><path class="cls-14" d="M257,249.89q.37,6.64.09,13.28l1.07-.44a13.64,13.64,0,0,1-3.49-4.3.63.63,0,0,0-1.14.48c.62,1.93,1.54,4.25,3.83,4.58,2.51.36,3.94-2.38,5.22-4.07.49-.64-.6-1.26-1.08-.63a14.36,14.36,0,0,1-2.16,2.73l-3.71-.71a11.2,11.2,0,0,1-.89-2.23l-1.14.48a14.38,14.38,0,0,0,3.69,4.55.63.63,0,0,0,1.07-.44q.28-6.65-.09-13.28c0-.8-1.29-.81-1.25,0Z"/><path class="cls-14" d="M176.8,235a72.61,72.61,0,0,0-14,5.58l.92.71a22.8,22.8,0,0,1,3.39-8.15l-1.14-.48c-.52,2.06-1.06,4.11-1.55,6.17a5.84,5.84,0,0,0-.36,3c.74,2.39,5.37,2.15,7.28,2.49.79.14,1.12-1.06.33-1.21-2.36-.42-6.3-.2-6.18-3.39.08-2.09,1.17-4.66,1.68-6.68a.63.63,0,0,0-1.14-.48,23.55,23.55,0,0,0-3.52,8.45.63.63,0,0,0,.92.71,71,71,0,0,1,13.74-5.45.63.63,0,0,0-.33-1.21Z"/><path class="cls-14" d="M298.15,168.88a5.19,5.19,0,0,0,5.64,5.71c.55,0,.93-.88.32-1.16-3.66-1.72-5.9,1.82-7.05,4.79-.26.67.79,1.08,1.14.48a2.94,2.94,0,0,0-.4-3.58c-1.37-1.53-3.62-1.42-5.48-1.27l.6.46c0-.18,2.81-1.62,3.19-2a13,13,0,0,0,2.42-3.59c.37-.71-.71-1.35-1.08-.63a14,14,0,0,1-1.65,2.68,7.81,7.81,0,0,1-2.8,1.87c-.91.47-1.5.91-1.29,2a.63.63,0,0,0,.6.46c1.54-.13,6.61-.1,4.81,3l1.14.48c.79-2,2.32-5.4,5.21-4l.32-1.16a4,4,0,0,1-4.39-4.46c.1-.8-1.15-.79-1.25,0Z"/><path class="cls-14" d="M227.19,174a5.61,5.61,0,0,0,9,2.64c.53-.41-.06-1.18-.61-1a5.61,5.61,0,0,0-4.41,5.61l.79-.6c-2.48-.64-3.3-3.71-5.92-4.21l.15,1.14a3.38,3.38,0,0,0,1.6-4.27c-.29-.74-1.49-.42-1.21.33a2.17,2.17,0,0,1-1,2.86.63.63,0,0,0,.15,1.14c2.51.48,3.4,3.56,5.92,4.21a.63.63,0,0,0,.79-.6,4.35,4.35,0,0,1,3.49-4.41l-.61-1a4.35,4.35,0,0,1-6.91-2.09c-.25-.76-1.46-.44-1.21.33Z"/><path class="cls-14" d="M195.74,260.33l52.1-12.58,25.09-6.06c9-2.17,18.05-5,27.38-4.26.8.06.8-1.19,0-1.25-8.18-.65-16,1.47-23.86,3.37l-27,6.52-54,13c-.78.19-.45,1.39.33,1.21Z"/><path class="cls-14" d="M199.36,224.71a490,490,0,0,1,95.29-17.48c.8-.07.8-1.32,0-1.25A491.73,491.73,0,0,0,199,223.51a.63.63,0,0,0,.33,1.21Z"/><path class="cls-1" d="M175.58,260.95l.62.11v-1.21c-1.72.71-2.26,3-.3,3.85,2.75,1.21,4.4-2.26,3.86-4.46-1.62-6.66-11.95-4.14-10.39,2.44.83,3.51,5.51,6.78,9,6.19s5.67-4.41,6.88-7.41c3.44-8.52-5.51-14-12.92-10.53-.73.34-.09,1.42.63,1.08,3.82-1.78,8.77-1.39,11,2.61,1.81,3.17.24,6.69-1.55,9.5-2.66,4.16-7.31,4.38-10.48.63-1.75-2.07-2.11-5.34.57-6.82s8.8,2.12,3.93,4.12c.5-.21.68-1.08,0-1.21l-.62-.11c-.79-.14-1.12,1.06-.33,1.21Z"/><path class="cls-14" d="M187.09,192.79A16.21,16.21,0,0,0,180,186c-.72-.36-1.35.72-.63,1.08a15.07,15.07,0,0,1,6.62,6.33c.39.71,1.47.08,1.08-.63Z"/><path class="cls-14" d="M189.83,192.61a8.12,8.12,0,0,0-3.83-8.73.63.63,0,0,0-.63,1.08,6.83,6.83,0,0,1,3.25,7.31c-.17.78,1,1.12,1.21.33Z"/><path class="cls-14" d="M194.09,191.32q0-5.51-.42-11c-.06-.8-1.32-.8-1.25,0q.44,5.5.42,11a.63.63,0,0,0,1.25,0Z"/><path class="cls-14" d="M314.67,201.46a2.9,2.9,0,0,0-.08,4c1.47,1.72,3.9,1.24,5.71.46l-.86-.86c-1.4,3,1.81,5.62,4.68,4.45a5.25,5.25,0,0,0,3-3.38c.45-1.91-1-3.06-2.45-4l-.63,1.08c2.62,1.17,4-2.13,2.14-3.93-1.72-1.65-6.61-1.55-6.58,1.55a.65.65,0,0,0,.46.6c1,.39,1.68-.45,1.46-1.44-.43-1.89-2.86-2.41-4.47-2.23-1.07.12-3.31.62-3.43,2.08a1.35,1.35,0,0,0,2,1.28c.72-.35.09-1.43-.63-1.08a2,2,0,0,1,1.47-.91,6.56,6.56,0,0,1,3.52.11,8.15,8.15,0,0,0,3.35.21q2.78-.06,1.31,2.67a.63.63,0,0,0-.63,1.08q1.35.52.81,2.23,1,1.81-.67,2.59c-1.47.91-4.92.23-3.69-2.38a.63.63,0,0,0-.86-.86,2.92,2.92,0,0,1-2.49.32q-2.49.33-1.62-2.86c.56-.58-.32-1.46-.88-.88Z"/><path class="cls-14" d="M302.43,240.69a8.33,8.33,0,0,0,6.24,11.45c.79.16,1.12-1,.33-1.21a7.09,7.09,0,0,1-5.37-9.91c.31-.74-.9-1.07-1.21-.33Z"/><path class="cls-14" d="M303,241.06c2.71,2.44,7.5,6.15,4.66,10.25-.46.66.62,1.29,1.08.63,3.21-4.62-1.69-8.92-4.85-11.76-.6-.54-1.48.34-.88.88Z"/><path class="cls-14" d="M303.7,242.3a9.12,9.12,0,0,0,3.08,5.79c.6.53,1.49-.36.88-.88a7.84,7.84,0,0,1-2.71-4.91c-.1-.79-1.36-.8-1.25,0Z"/><line class="cls-17" x1="105.09" y1="152.4" x2="387.32" y2="152.4"/><rect class="cls-1" x="342.66" y="157.9" width="48.04" height="15.66" rx="4.99" ry="4.99"/><text class="cls-18" transform="translate(352.07 167.3)"><tspan class="cls-19">チ</tspan><tspan class="cls-20" x="4.89" y="0">ケ</tspan><tspan class="cls-21" x="9.37" y="0">ッ</tspan><tspan class="cls-22" x="13.21" y="0">ト</tspan><tspan x="18" y="0">予約</tspan></text><rect x="100.43" y="124.05" width="297.04" height="28.35"/><text class="cls-23" transform="translate(143.82 147.18)"><tspan class="cls-24">A</tspan><tspan x="2.36" y="0">bout</tspan></text><text class="cls-23" transform="translate(157.78 147.18)"><tspan class="cls-25">C</tspan><tspan x="2.21" y="0">o</tspan><tspan class="cls-26" x="4.34" y="0">n</tspan><tspan x="6.47" y="0">ta</tspan><tspan class="cls-27" x="9.63" y="0">c</tspan><tspan x="11.42" y="0">t</tspan></text><text class="cls-28" transform="translate(130.7 147.18)">Home</text><text class="cls-23" transform="translate(184.44 133.64)">N<tspan class="cls-29" x="2.55" y="0">o</tspan><tspan class="cls-30" x="4.65" y="0">v10, 2018</tspan></text><text class="cls-23" transform="translate(184.44 137.88)"><tspan class="cls-31">Y</tspan><tspan x="1.8" y="0">okohama, </tspan><tspan class="cls-32" x="18.63" y="0">K</tspan><tspan class="cls-30" x="20.8" y="0">anag</tspan><tspan class="cls-33" x="28.86" y="0">a</tspan><tspan class="cls-26" x="30.7" y="0">w</tspan><tspan x="33.54" y="0">a</tspan></text><path class="cls-1" d="M132.57,139.19l-.42-.61h.4l.23.34.22-.34h.39l-.42.6.48.68H133l-.27-.41-.27.41h-.4Z"/><path class="cls-14" d="M135.12,139.11h-1.26v-.27h1.26Zm0,.53h-1.26v-.27h1.26Z"/><path class="cls-14" d="M136.09,138.38h-.35v-.29h.35Zm-.35.2h.35v1.29h-.35Z"/><path class="cls-14" d="M136.31,138.58h.34v.18h0a.46.46,0,0,1,.39-.21c.38,0,.47.21.47.53v.79h-.35v-.73c0-.21-.06-.32-.23-.32s-.27.11-.27.37v.67h-.35Z"/><path class="cls-14" d="M138.66,139.7h0a.43.43,0,0,1-.39.2c-.39,0-.58-.33-.58-.69a.6.6,0,0,1,.57-.67.45.45,0,0,1,.38.19h0v-.65H139v1.78h-.34Zm-.31-.89c-.23,0-.31.2-.31.41s.09.41.31.41.3-.2.3-.42S138.58,138.81,138.35,138.81Z"/><path class="cls-14" d="M139.5,139.31c0,.22.12.33.32.33a.29.29,0,0,0,.28-.17h.31a.58.58,0,0,1-.6.43.63.63,0,0,1-.66-.68.65.65,0,1,1,1.28.08Zm.57-.22c0-.18-.11-.27-.28-.27a.28.28,0,0,0-.29.27Z"/><path class="cls-14" d="M140.59,138.58h.34v.16h0a.43.43,0,0,1,.38-.2c.4,0,.58.33.58.69a.59.59,0,0,1-.56.66.46.46,0,0,1-.39-.19h0v.61h-.35Zm1,.65c0-.2-.08-.42-.31-.42s-.31.21-.31.42.08.41.31.41S141.54,139.44,141.54,139.23Z"/><path class="cls-14" d="M142.35,139.31c0,.22.12.33.32.33a.29.29,0,0,0,.28-.17h.31a.58.58,0,0,1-.6.43.63.63,0,0,1-.66-.68.65.65,0,1,1,1.28.08Zm.57-.22c0-.18-.11-.27-.28-.27a.28.28,0,0,0-.29.27Z"/><path class="cls-14" d="M143.44,138.58h.34v.18h0a.46.46,0,0,1,.39-.21c.38,0,.47.21.47.53v.79h-.35v-.73c0-.21-.06-.32-.23-.32s-.27.11-.27.37v.67h-.35Z"/><path class="cls-14" d="M145.78,139.7h0a.43.43,0,0,1-.39.2c-.39,0-.58-.33-.58-.69a.6.6,0,0,1,.57-.67.45.45,0,0,1,.38.19h0v-.65h.35v1.78h-.34Zm-.31-.89c-.23,0-.31.2-.31.41s.09.41.31.41.3-.2.3-.42S145.7,138.81,145.47,138.81Z"/><path class="cls-14" d="M146.63,139.31c0,.22.12.33.32.33a.29.29,0,0,0,.28-.17h.31a.58.58,0,0,1-.6.43.63.63,0,0,1-.66-.68.65.65,0,1,1,1.28.08Zm.57-.22c0-.18-.11-.27-.28-.27a.28.28,0,0,0-.29.27Z"/><path class="cls-14" d="M147.71,138.58H148v.18h0a.46.46,0,0,1,.39-.21c.38,0,.47.21.47.53v.79h-.35v-.73c0-.21-.06-.32-.23-.32s-.27.11-.27.37v.67h-.35Z"/><path class="cls-14" d="M149.59,138.58h.26v.24h-.26v.64c0,.12,0,.15.15.15h.11v.28h-.21c-.22,0-.41,0-.41-.31v-.76H149v-.24h.21v-.39h.35Z"/><path class="cls-14" d="M150,138.09h.35v1.78H150Z"/><path class="cls-14" d="M151.19,140a.4.4,0,0,1-.44.29h-.22V140h.21a.17.17,0,0,0,.12-.24l-.45-1.21h.38l.29.88h0l.28-.88h.37Z"/><path class="cls-14" d="M153.06,138.55a.68.68,0,1,1-.66.68A.63.63,0,0,1,153.06,138.55Zm0,1.09c.24,0,.31-.21.31-.41s-.07-.41-.31-.41-.31.21-.31.41S152.83,139.64,153.06,139.64Z"/><path class="cls-14" d="M153.86,138.58h.34v.24h0a.45.45,0,0,1,.41-.27h.08v.33h-.13c-.26,0-.35.19-.35.41v.58h-.35Z"/><path class="cls-14" d="M156,139.78c0,.21-.07.57-.67.57-.25,0-.55-.12-.57-.41h.35a.24.24,0,0,0,.26.18c.2,0,.29-.13.28-.32v-.17h0a.43.43,0,0,1-.39.2c-.39,0-.55-.29-.55-.65a.57.57,0,0,1,.55-.64.4.4,0,0,1,.38.21h0v-.17H156Zm-.34-.58c0-.21-.07-.4-.3-.4s-.29.17-.29.37.07.39.29.39A.32.32,0,0,0,155.68,139.21Z"/><path class="cls-14" d="M156.18,139c0-.33.32-.43.6-.43s.56.06.56.37v.67a.66.66,0,0,0,0,.29H157a.52.52,0,0,1,0-.12.59.59,0,0,1-.43.16c-.24,0-.44-.12-.44-.39s.22-.36.44-.39.42,0,.42-.17-.1-.17-.23-.17-.22.05-.23.19Zm.82.26a.7.7,0,0,1-.29.07c-.11,0-.21.06-.21.19s.1.16.22.16a.26.26,0,0,0,.29-.3Z"/><path class="cls-14" d="M157.58,138.58h.34v.18h0a.46.46,0,0,1,.39-.21c.38,0,.47.21.47.53v.79h-.35v-.73c0-.21-.06-.32-.23-.32s-.27.11-.27.37v.67h-.35Z"/><path class="cls-14" d="M159.32,138.38H159v-.29h.35Zm-.35.2h.35v1.29H159Z"/><path class="cls-14" d="M159.47,139.6l.67-.75h-.62v-.27h1.08v.27l-.67.75h.72v.27h-1.18Z"/><path class="cls-14" d="M161.08,139.31c0,.22.12.33.32.33a.29.29,0,0,0,.28-.17H162a.58.58,0,0,1-.6.43.63.63,0,0,1-.66-.68.65.65,0,1,1,1.28.08Zm.57-.22c0-.18-.11-.27-.28-.27a.28.28,0,0,0-.29.27Z"/><path class="cls-14" d="M163.08,139.7h0a.43.43,0,0,1-.39.2c-.39,0-.58-.33-.58-.69a.6.6,0,0,1,.57-.67.45.45,0,0,1,.38.19h0v-.65h.35v1.78h-.34Zm-.31-.89c-.23,0-.31.2-.31.41s.09.41.31.41.3-.2.3-.42S163,138.81,162.78,138.81Z"/><path class="cls-14" d="M164.71,138.42h-.53v-.33h1.46v.33h-.53v1.45h-.39Z"/><path class="cls-14" d="M165.79,138.09h1.33v.33h-.94v.38H167v.3h-.86v.44h1v.33h-1.35Z"/><path class="cls-14" d="M167.3,138.09h.77a.78.78,0,0,1,.81.88.79.79,0,0,1-.81.9h-.77Zm.39,1.45H168c.23,0,.44-.14.44-.53s-.12-.59-.51-.59h-.28Z"/><path class="cls-14" d="M170,139.31c0,.22.12.33.32.33a.29.29,0,0,0,.28-.17h.31a.58.58,0,0,1-.6.43.63.63,0,0,1-.66-.68.65.65,0,1,1,1.28.08Zm.57-.22c0-.18-.11-.27-.28-.27a.28.28,0,0,0-.29.27Z"/><path class="cls-14" d="M171.74,139.87h-.39l-.44-1.29h.37l.27.88h0l.27-.88h.35Z"/><path class="cls-14" d="M172.51,139.31c0,.22.12.33.32.33a.29.29,0,0,0,.28-.17h.31a.58.58,0,0,1-.6.43.63.63,0,0,1-.66-.68.65.65,0,1,1,1.28.08Zm.57-.22c0-.18-.11-.27-.28-.27a.28.28,0,0,0-.29.27Z"/><path class="cls-14" d="M173.6,138.58h.34v.18h0a.46.46,0,0,1,.39-.21c.38,0,.47.21.47.53v.79h-.35v-.73c0-.21-.06-.32-.23-.32s-.27.11-.27.37v.67h-.35Z"/><path class="cls-14" d="M175.47,138.58h.26v.24h-.26v.64c0,.12,0,.15.15.15h.11v.28h-.21c-.22,0-.41,0-.41-.31v-.76h-.21v-.24h.21v-.39h.35Z"/><path class="cls-1" d="M133.64,132.21H132V130.7h5.14v1.52h-1.66v4.4h-1.82Z"/><path class="cls-1" d="M137.4,130.7h5v1.52h-3.16v.74h3.16v1.41h-3.16v.74h3.16v1.52h-5Z"/><path class="cls-1" d="M142.69,130.7h3c2,0,2.67,1.46,2.67,2.95a2.69,2.69,0,0,1-3,3h-2.64Zm1.82,4.4h.71c1.14,0,1.3-.92,1.3-1.48a1.31,1.31,0,0,0-1.43-1.41h-.58Z"/><path class="cls-1" d="M151,134.33l-.56-.92-.54.92h-1.34l1.27-1.86-1.22-1.78h1.34l.49.88.51-.88h1.34L151,132.47l1.27,1.86Z"/><text class="cls-34" transform="translate(148.1 136.6)">YNU</text><text class="cls-23" transform="translate(174.34 147.09)"><tspan class="cls-35">S</tspan><tspan x="1.94" y="0">chedule</tspan></text><text class="cls-36" transform="translate(155.3 114.49)">tedxynu.com</text><text class="cls-23" transform="translate(311.1 138.93)"><tspan class="cls-37">W</tspan><tspan class="cls-30" x="3.15" y="0">a</tspan><tspan class="cls-26" x="5.02" y="0">n</tspan><tspan x="7.16" y="0">t </tspan><tspan class="cls-38" x="9.27" y="0">t</tspan><tspan class="cls-39" x="10.53" y="0">o be pa</tspan><tspan class="cls-40" x="22.53" y="0">r</tspan><tspan class="cls-39" x="23.89" y="0">t of this e</tspan><tspan class="cls-41" x="38.73" y="0">v</tspan><tspan x="40.55" y="0">e</tspan><tspan class="cls-26" x="42.5" y="0">n</tspan><tspan x="44.63" y="0">t?</tspan></text><rect class="cls-42" x="362.09" y="133.63" width="21.49" height="7.19" rx="2.29" ry="2.29"/><text class="cls-43" transform="translate(366.17 138.35)">J<tspan class="cls-44" x="1.99" y="0">oin us</tspan></text><path class="cls-45" d="M45.84,280.79V285c0,9.17,9.64,16.61,21.52,16.61H429c11.89,0,21.53-7.44,21.53-16.61v-4.22Z"/><path class="cls-46" d="M448.46,294.46H47.91c3.44,5.6,10.81,9.48,19.36,9.51H429.36a26.52,26.52,0,0,0,9.9-2h0l.05,0h0l.09,0h0l0,0,0,0h0l.07,0h0l.06,0h0A19.34,19.34,0,0,0,448.46,294.46Z"/></g></svg>