<svg xmlns="http://www.w3.org/2000/svg" viewBox="0 0 312 312"><defs><style>.cls-1{fill:#fff;}.cls-2,.cls-8{fill:#e37b40;}.cls-3,.cls-9{fill:#46b29d;}.cls-4,.cls-7{fill:#f53855;}.cls-5,.cls-6{fill:#f0ca4d;}.cls-10,.cls-6,.cls-7,.cls-8,.cls-9{stroke:#000;stroke-miterlimit:10;}.cls-10{fill:#324d5c;}</style></defs><title>thirty-logo-challenge</title><g id="background"><rect class="cls-1" width="312" height="312"/><path class="cls-2" d="M89.31,189.86c-1.4-.27-.34,1.73-2.19,5.12s-5.92-.38-2.54-3.5,4.52-3.82-1.38-4.94c-2.72-.51-1.7-5-1.87-6.49-.22-1.92-2.14-5.47-7.82.79-5.39,5.94-10.47.73-9.55-2.75,1.55-5.89,13.16-1.14,14.08-4.28,1.23-4.22-8.27-2.79-6.89-6.27,1.64-4.13,5.53,1.9,7.93,2.73,4.6,1.6,6-6-.1-8-2.84-.92,0-6.4,3.21.14,1.33,2.66,7.3,2.93,4.82-4.81-.83-2.59-3.16-6.65-2.52-8.39,1.64-4.47,8.28-3.24,6.6,8.61-1,7,3.51,2,5,1.84,4.37-.44,1.13,5.64,6.06,2.48,5.95-3.81,6-7.56,9.59-10.89,2.55-2.34,5-2.23,6.33-.07,1,1.68.2,4.21-2.5,5.82-3.25,1.94-3.87,3.55-2.67,3.71,7.12,1,8.69,6.83,5.39,10.7-2.3,2.7-3.53,5.38-2,7,3.6,3.76.31,9.37-6,7.09s-6.55.79-6.47,2.86,6.46,5.45,4.35,9.73c-1.55,3.14-6.87,3.39-8.91-.7s2-6-.73-7.95-3,2.56-5.5,2.73S90.64,190.11,89.31,189.86Z"/><path class="cls-3" d="M63.73,168.77c-.63-1.1-1.38.8-4.78,1.57s-3.18-4.22.92-3.8,6.85-4.62.26-3.46-3.92-7.73.74-5.11c3.84,2.16,4.92-.42,4.92-.42s2.5-4.7-5.09-4.8c-7.21-.1-6.59-6.63-3.67-8.07,4.93-2.45,8.44,8.2,11.12,6.95,3.6-1.68-1.85-4.88,1.2-7.14,1.9-1.41,3.14,1.28,4.67,2.1,0,0,1.08,1.06,2.55-1.16s3.29-.87,3.39,2.66c.07,2.69,3,1.92,4.47,0s2.72-6.09,4.28-6.69c4-1.55,7,3.66-2.06,9.58-5.37,3.5.53,5.12,2.65,3,1-1,2.15.94,1.09,2.06s-4.52,0-5.59.76.29,2.72,5.32,4.17c6.07,1.74,13.27.91,17.66,1.37,3.08.33,4.45,2.06,3.73,4.23-.56,1.68-2.77,2.64-5.43,1.78-3.22-1-7.61-3.47-12.9-4.69-9.67-2.23-8.9.58-7.93,1.73s4.89,2.44,7.41,4.26.81,6.84-2.16,5.48-4.14-7.64-7.51-5.92c-3.12,1.59-3.21,5.22,1.39,9.16C88,181.42,81,186,78.92,180.42s-4.35-4-5.73-2.66-.85,9.06-5,10.18c-3.05.82-6.32-2.62-4.7-6.43s6.13-3.73,5.89-6.68-3.5-.51-5.07-2.08S64.33,169.82,63.73,168.77Z"/><path class="cls-3" d="M56.72,159.74s1-2.56,3-1.78A13.83,13.83,0,0,1,63.16,160"/><path class="cls-4" d="M111.63,179.88c-1.25-.25-1.49-.18-2.44,3.17s-5.23.77-2.89-2.63-.77-8.23-2.91-1.89-8.66-.27-4.13-3.1c3.74-2.33,2-4.52,2-4.52s-2.92-4.45-6.66,2.16c-3.54,6.28-9,2.6-8.85-.65C86,166.91,97,168.94,97.17,166c.25-4-5.17-.71-5.69-4.47-.32-2.34,2.63-2.14,4.08-3.1,0,0,1.45-.44.2-2.79s.81-3.31,4-1.7c2.4,1.22,3.1-1.67,2.12-3.94s-3.67-5.3-3.82-7c-.41-4.42,6.07-3.84,6.88,2.84.77,6.36,2.73,3.77,4.47,2.69a2,2,0,0,1,3.13,1.21c.1.85-.64,1.76-.94,2.79-.38,1.28.66,2.36,4.34-1.36,4.44-4.49.89-7.35,3.4-11,1.76-2.55,4.42-2.46,5.84-1.41,2,1.46,1.64,4.11-.07,5.93-.76.8-3.88,2.94-5.34,5.06-2.58,3.74-1.19,5.65.28,5.36s1.92-.69,4.73-2,6.39,2.56,3.77,4.52-8.69,0-8.8,3.76c-.1,3.5,3,5.32,8.71,3.17,4.39-1.67,5.09,6.62-.82,5.78s-5.55,1.92-5.08,3.75,7.54,5.09,6.53,9.28c-.74,3.07-5.32,4.29-7.9,1s-.33-7.17-3-8.37-1.89,2.57-3.78,3.71A3.6,3.6,0,0,1,111.63,179.88Z"/><path class="cls-5" d="M97,162.81c-1.41.55.7,1.77,1,5.89s-5.52,3-4.31-1.75,1.84-6-4.1-3.71c-2.74,1.07-4.43-3.61-5.43-4.85-1.31-1.62-5.08-3.77-6.55,5.13-1.39,8.46-9,6.57-10.14,2.9-2-6.23,11.13-8.47,10.13-11.85-1.34-4.53-9,2.13-9.8-1.81-.92-4.68,6.05-1.4,8.69-2,5-1.14,2-8.84-4.69-7.18-3.07.77-3.75-5.8,3-1.68,2.73,1.68,8.23-1.46,1.53-7.1-2.24-1.89-6.68-4.27-7.11-6.21-1.11-5,5.54-7.62,10.9,4.11,3.16,6.93,4.3-.17,5.54-1.15,3.66-2.87,4.27,4.49,6.86-1.17,3.12-6.83,1-10.24,2.29-15.32.93-3.57,3.2-4.87,5.63-3.64,1.88,1,2.61,3.72,1.13,6.7-1.79,3.6-3,3.14-5.35,9.14-4.32,11-.24,11.58.63,9.63.72-1.62.28-4,2.86-4.87,3.81-1.32,9.14,3.54,6.37,6.69-1.27,1.44.44,6.22,5.88,1.51,4.22-3.65,8.39,5.31,1.45,6.79s-5.41,4.42-4.14,6.26,8.94,1.32,9.52,6.4c.43,3.73-4.19,7-8.39,4.4s-1.74-6.59-5.26-6.82-1.22,4-3.34,5.59S98.34,162.29,97,162.81Z"/><path class="cls-6" d="M141.18,147.14a3.34,3.34,0,0,1,.41-.94,3.74,3.74,0,0,1,.67-.81,2.36,2.36,0,0,1,.86-.51,1.44,1.44,0,0,1,1,0,23.49,23.49,0,0,1,3.07-1.1,13.74,13.74,0,0,1,3.14-.51,11,11,0,0,1,3.09.31,9.06,9.06,0,0,1,5,3.36,12.74,12.74,0,0,1,1.45,2.5,11.24,11.24,0,0,1-.12,9.09,11.07,11.07,0,0,1-2.63,3.56,10.33,10.33,0,0,1-4,2.24,11.25,11.25,0,0,1-3.48.51,30.17,30.17,0,0,1-3.48-.24v4.26q0,.48,0,1a9.33,9.33,0,0,1,0,1.05,6.53,6.53,0,0,1-.12,1,2.72,2.72,0,0,1-.39.94A2,2,0,0,1,144.4,174a2.34,2.34,0,0,1-1.49-.09,2.83,2.83,0,0,1-1.22-1,2.67,2.67,0,0,1-.51-1.65v-7.9a2.89,2.89,0,0,1-1.14-1.1,2.42,2.42,0,0,1-.33-1.34,2.82,2.82,0,0,1,.41-1.3,2.93,2.93,0,0,1,1-1V147.4ZM153,149.07a6,6,0,0,0-3.48-.44,12.45,12.45,0,0,0-3.44,1.14v9.57a14.49,14.49,0,0,0,3.91.18,7.56,7.56,0,0,0,3.66-1.32,4.29,4.29,0,0,0,1.63-2.11,6,6,0,0,0,.33-2.59,6.18,6.18,0,0,0-.81-2.53A5.42,5.42,0,0,0,153,149.07Z"/><path class="cls-7" d="M182.92,170.59a3.53,3.53,0,0,1-.61,1.65,2.66,2.66,0,0,1-1.12.94,2,2,0,0,1-1.34.07,2.54,2.54,0,0,1-1.32-1,2.88,2.88,0,0,1-.59-1.56,13.92,13.92,0,0,0-.22-1.69,40.06,40.06,0,0,0-1.18-5q-2.53,0-5,0t-5,0q-.37,1.14-.63,2.33t-.51,2.33q-.2.88-.37,1.82a3.52,3.52,0,0,1-.73,1.65,2.36,2.36,0,0,1-1.49,1,2.07,2.07,0,0,1-1.42-.29,2.79,2.79,0,0,1-1-1.21,3.36,3.36,0,0,1-.26-1.87,15,15,0,0,1,.49-2.68q.37-1.32.69-2.63A102.34,102.34,0,0,1,166,149.91q.24-.61.51-1.19t.51-1.14q.28-.61.57-1.32a7.49,7.49,0,0,1,.67-1.3,4.19,4.19,0,0,1,.92-1,2,2,0,0,1,1.3-.42,2.31,2.31,0,0,1,1.71.7,26.89,26.89,0,0,1,4.56,6.74q1.79,3.76,3.22,7.66a16.26,16.26,0,0,1,1.67,0,2.08,2.08,0,0,1,1.47.79,2.45,2.45,0,0,1,.67,1.32,2.89,2.89,0,0,1-.12,1.36,2.79,2.79,0,0,1-.73,1.14,2.66,2.66,0,0,1-1.24.66q.41,1.54.71,3.14t.51,3.23Zm-8.31-11.94q-.77-2-1.65-3.93a30.53,30.53,0,0,0-2-3.71q-.81,1.93-1.53,3.84t-1.32,3.89q1.91,0,3.36,0T174.61,158.65Z"/><path class="cls-8" d="M196.6,167.25a2.66,2.66,0,0,1,1.75.68,2.92,2.92,0,0,1,.9,1.47,2.64,2.64,0,0,1-.12,1.65,2.35,2.35,0,0,1-1.34,1.25,5.83,5.83,0,0,1-1.73.4,18.27,18.27,0,0,1-2,.07q-1,0-1.85-.09t-1.3-.07h-2.4a2.23,2.23,0,0,1-1.47-.51,2.85,2.85,0,0,1-.88-1.21,2.76,2.76,0,0,1-.12-1.49,2.86,2.86,0,0,1,.75-1.45,2.26,2.26,0,0,1,1.51-.7,10,10,0,0,1,1.87,0V149.86l-1.75,0a2.83,2.83,0,0,1-1.63-.64,2.33,2.33,0,0,1-.81-1.12,2.38,2.38,0,0,1-.06-1.27,3.31,3.31,0,0,1,.55-1.21,2.41,2.41,0,0,1,1-.83,2.78,2.78,0,0,1,1.18-.26l4.17,0q2.1,0,4.21,0a.65.65,0,0,1,.39.13,2.08,2.08,0,0,0,.39.22,2.82,2.82,0,0,1,1.26,1.62,2.53,2.53,0,0,1-.24,2.06,2.22,2.22,0,0,1-.71.81,2.68,2.68,0,0,1-.94.4,4.91,4.91,0,0,1-1,.11h-1v17.48l.59,0,.59-.07Z"/><path class="cls-9" d="M219.48,145.82a3.34,3.34,0,0,1,.79-1.45,2.62,2.62,0,0,1,1.2-.75,2.07,2.07,0,0,1,1.32.09,2.45,2.45,0,0,1,1.16,1.05,3.09,3.09,0,0,1,.31.53,1.36,1.36,0,0,1,.14.57q.08,6.28-.06,12.54t-.47,12.54a2.1,2.1,0,0,1-.59,1.58,2.68,2.68,0,0,1-1.34.72,2.53,2.53,0,0,1-1.53-.18,2.15,2.15,0,0,1-1.14-1.12.13.13,0,0,1,0-.09V172q-2.65-4.7-5.58-9t-6.11-8.59v13.31q0,1.36,0,2.22t-.1,1.34a4.12,4.12,0,0,1-.18.83,2.26,2.26,0,0,1-1.12,1.41,2.32,2.32,0,0,1-1.53.18,2.4,2.4,0,0,1-1.34-.88,2.69,2.69,0,0,1-.57-1.76V158.73q0-1.84,0-3.45t0-2.7q0-1.49,0-3t0-3a2.27,2.27,0,0,1,.35-1.27,2.4,2.4,0,0,1,.88-.81,2.8,2.8,0,0,1,1.14-.33,2.71,2.71,0,0,1,1.18.18,2.65,2.65,0,0,1,1,.72q.51.55,1,1.19t.92,1.27q.43.64.71,1l2.44,3.23q1.38,1.82,2.56,3.45t2.3,3.34q1.12,1.67,2.18,3.34.12-4,.16-7.95t0-7.95Z"/><path class="cls-10" d="M245.7,144.86A3,3,0,0,1,247,146a3.68,3.68,0,0,1,.61,1.58,2.27,2.27,0,0,1-.29,1.47,2,2,0,0,1-1.36.88,16.66,16.66,0,0,1-3.52.31q-1.65,0-2.87,0,0,5.27,0,10.36t0,10.76a2,2,0,0,1-.77,1.78,2.44,2.44,0,0,1-1.69.46,2.9,2.9,0,0,1-1.69-.79,2.48,2.48,0,0,1-.77-1.93q0-5.18,0-10.32V150.17l-1.24,0q-.88,0-1.91,0a18.08,18.08,0,0,1-2.14-.18,5.65,5.65,0,0,1-1.91-.59,1.68,1.68,0,0,1-.86-1,2.52,2.52,0,0,1,0-1.38,3.55,3.55,0,0,1,.67-1.32,2.41,2.41,0,0,1,1.22-.83q3.42-.22,6.62-.15t6.49.07l2,0,2,0Z"/></g></svg>