<svg xmlns="http://www.w3.org/2000/svg" viewBox="0 0 489.22 378.03"><defs><style>.cls-1,.cls-7{fill:#e37b40;}.cls-2,.cls-8{fill:#46b29d;}.cls-3,.cls-6{fill:#f53855;}.cls-4,.cls-5{fill:#f0ca4d;}.cls-5,.cls-6,.cls-7,.cls-8,.cls-9{stroke:#000;stroke-miterlimit:10;}.cls-9{fill:#324d5c;}</style></defs><title>thrity-logo-challenge</title><g id="background"><rect width="489.22" height="378.03"/><path class="cls-1" d="M132.53,237.61c-2.2-.42-.53,2.71-3.43,8s-9.28-.6-4-5.5,7.09-6-2.17-7.74c-4.27-.81-2.67-7.88-2.94-10.18-.34-3-3.36-8.58-12.26,1.24-8.46,9.32-16.41,1.14-15-4.3,2.43-9.23,20.64-1.79,22.08-6.72,1.92-6.62-13-4.37-10.8-9.83,2.57-6.48,8.67,3,12.44,4.28,7.22,2.51,9.47-9.35-.15-12.47-4.45-1.44-.07-10,5,.22,2.08,4.18,11.44,4.59,7.56-7.54-1.3-4.06-5-10.43-4-13.16,2.58-7,13-5.08,10.35,13.5-1.55,11,5.51,3.12,7.84,2.89,6.86-.69,1.77,8.84,9.5,3.88,9.32-6,9.35-11.85,15-17.07,4-3.67,7.87-3.5,9.93-.11,1.6,2.63.31,6.6-3.91,9.12-5.1,3-6.06,5.57-4.18,5.82,11.17,1.5,13.62,10.71,8.45,16.77-3.61,4.24-5.53,8.44-3.07,11,5.65,5.9.48,14.69-9.37,11.12s-10.28,1.23-10.15,4.49,10.13,8.55,6.82,15.26c-2.43,4.92-10.77,5.32-14-1.1s3.06-9.45-1.15-12.46-4.73,4-8.62,4.28S134.62,238,132.53,237.61Z"/><path class="cls-2" d="M92.43,204.54c-1-1.73-2.17,1.25-7.49,2.46s-5-6.62,1.44-6,10.74-7.25.41-5.43-6.15-12.12,1.16-8c6,3.39,7.72-.66,7.72-.66s3.92-7.37-8-7.53c-11.3-.16-10.33-10.39-5.76-12.66,7.74-3.85,13.23,12.86,17.44,10.89,5.65-2.64-2.91-7.65,1.87-11.19,3-2.21,4.93,2,7.33,3.29,0,0,1.69,1.66,4-1.82s5.16-1.37,5.32,4.18c.12,4.22,4.63,3,7,0s4.26-9.55,6.71-10.49c6.3-2.43,11,5.73-3.23,15-8.42,5.48.83,8,4.15,4.77,1.56-1.53,3.36,1.47,1.71,3.23s-7.09-.05-8.76,1.2.46,4.27,8.35,6.53c9.51,2.73,20.8,1.43,27.68,2.15,4.83.51,7,3.23,5.85,6.63-.87,2.64-4.34,4.14-8.52,2.79-5-1.63-11.93-5.45-20.22-7.36-15.16-3.49-13.95.91-12.44,2.71s7.67,3.82,11.61,6.68,1.28,10.72-3.39,8.59-6.49-12-11.78-9.28c-4.9,2.49-5,8.19,2.18,14.37,5.59,4.79-5.29,12-8.58,3.22s-6.82-6.2-9-4.17-1.33,14.2-7.85,16c-4.78,1.29-9.9-4.1-7.37-10.08s9.62-5.84,9.23-10.47-5.5-.8-7.95-3.27S93.37,206.19,92.43,204.54Z"/><path class="cls-2" d="M81.43,190.38s1.61-4,4.77-2.79a21.69,21.69,0,0,1,5.32,3.27"/><path class="cls-3" d="M167.52,222c-2-.4-2.33-.29-3.83,5s-8.2,1.2-4.54-4.12-1.21-12.9-4.57-3-13.58-.42-6.47-4.86c5.86-3.66,3.12-7.09,3.12-7.09s-4.58-7-10.44,3.39c-5.56,9.84-14.07,4.08-13.87-1,.33-8.63,17.63-5.44,17.92-10.08.39-6.23-8.11-1.12-8.92-7-.51-3.67,4.13-3.36,6.4-4.85,0,0,2.27-.69.32-4.38s1.27-5.19,6.21-2.66c3.76,1.92,4.86-2.62,3.33-6.17s-5.75-8.3-6-10.92c-.64-6.93,9.52-6,10.79,4.45,1.21,10,4.28,5.91,7,4.22,1.86-1.15,4.61-.51,4.91,1.89.16,1.34-1,2.76-1.47,4.37-.59,2,1,3.7,6.81-2.14,7-7,1.39-11.52,5.33-17.21,2.76-4,6.93-3.86,9.16-2.22,3.1,2.28,2.57,6.45-.12,9.3-1.19,1.26-6.08,4.6-8.38,7.94-4,5.86-1.86,8.86.43,8.4s3-1.08,7.41-3.17,10,4,5.91,7.09-13.62,0-13.79,5.89c-.16,5.49,4.78,8.34,13.65,5,6.88-2.61,8,10.39-1.29,9.07s-8.71,3-8,5.88,11.82,8,10.24,14.54c-1.16,4.82-8.35,6.72-12.38,1.64s-.52-11.24-4.76-13.13-3,4-5.93,5.82C170.59,222.5,169.31,222.32,167.52,222Z"/><path class="cls-4" d="M144.58,195.2c-2.21.86,1.09,2.77,1.57,9.24s-8.66,4.7-6.75-2.75,2.89-9.46-6.42-5.82c-4.29,1.68-7-5.66-8.52-7.6-2-2.54-8-5.91-10.27,8.05-2.18,13.26-14,10.31-15.9,4.54-3.16-9.78,17.45-13.29,15.88-18.58-2.11-7.11-14.14,3.35-15.36-2.84-1.45-7.35,9.49-2.19,13.62-3.13,7.92-1.79,3.07-13.86-7.36-11.26-4.82,1.2-5.88-9.09,4.64-2.64,4.28,2.63,12.91-2.28,2.4-11.13-3.51-3-10.47-6.69-11.15-9.74-1.75-7.83,8.68-12,17.08,6.44,5,10.86,6.74-.27,8.69-1.8,5.74-4.5,6.7,7,10.76-1.83,4.89-10.7,1.52-16.06,3.59-24,1.45-5.59,5-7.64,8.83-5.71,3,1.49,4.1,5.83,1.77,10.51-2.81,5.65-4.68,4.93-8.39,14.34-6.78,17.21-.37,18.16,1,15.11,1.13-2.54.44-6.23,4.48-7.64,6-2.07,14.33,5.56,10,10.49-2,2.26.68,9.75,9.22,2.36,6.61-5.73,13.16,8.33,2.27,10.65s-8.49,6.93-6.49,9.82,14,2.06,14.93,10c.67,5.85-6.57,10.92-13.15,6.89s-2.73-10.33-8.24-10.69-1.91,6.32-5.24,8.77S146.69,194.39,144.58,195.2Z"/><path class="cls-5" d="M213.87,170.62a5.24,5.24,0,0,1,.64-1.48,5.86,5.86,0,0,1,1.05-1.27,3.7,3.7,0,0,1,1.34-.79,2.25,2.25,0,0,1,1.5,0,36.83,36.83,0,0,1,4.82-1.72,21.54,21.54,0,0,1,4.92-.79,17.3,17.3,0,0,1,4.85.48,14.21,14.21,0,0,1,7.79,5.27,20,20,0,0,1,2.27,3.93,17.63,17.63,0,0,1-.19,14.25,17.36,17.36,0,0,1-4.12,5.58,16.19,16.19,0,0,1-6.23,3.51,17.64,17.64,0,0,1-5.46.79,47.31,47.31,0,0,1-5.46-.38v6.68q0,.76.06,1.58a14.63,14.63,0,0,1,0,1.65,10.24,10.24,0,0,1-.19,1.62,4.26,4.26,0,0,1-.61,1.48,3.2,3.2,0,0,1-2,1.69,3.67,3.67,0,0,1-2.33-.14,4.45,4.45,0,0,1-1.92-1.51,4.19,4.19,0,0,1-.8-2.58V196.1a4.52,4.52,0,0,1-1.79-1.72,3.79,3.79,0,0,1-.51-2.1,4.42,4.42,0,0,1,.64-2,4.59,4.59,0,0,1,1.6-1.58V171Zm18.58,3A9.38,9.38,0,0,0,227,173a19.52,19.52,0,0,0-5.4,1.79v15a22.72,22.72,0,0,0,6.13.28,11.86,11.86,0,0,0,5.75-2.07,6.72,6.72,0,0,0,2.55-3.3,9.47,9.47,0,0,0,.51-4.06,9.69,9.69,0,0,0-1.28-4A8.51,8.51,0,0,0,232.45,173.65Z"/><path class="cls-6" d="M279.31,207.39a5.54,5.54,0,0,1-1,2.58,4.17,4.17,0,0,1-1.76,1.48,3.14,3.14,0,0,1-2.11.1,4,4,0,0,1-2.08-1.62,4.52,4.52,0,0,1-.93-2.44,21.83,21.83,0,0,0-.35-2.65,62.81,62.81,0,0,0-1.85-7.78q-4,.07-7.85.07t-7.79.07q-.58,1.79-1,3.65t-.8,3.65q-.32,1.38-.57,2.86a5.51,5.51,0,0,1-1.15,2.58,3.7,3.7,0,0,1-2.33,1.55,3.25,3.25,0,0,1-2.23-.45,4.38,4.38,0,0,1-1.6-1.89,5.28,5.28,0,0,1-.41-2.93,23.45,23.45,0,0,1,.77-4.2q.58-2.07,1.09-4.13A160.46,160.46,0,0,1,252.81,175q.38-1,.8-1.86t.8-1.79q.45-1,.89-2.07a11.75,11.75,0,0,1,1.05-2,6.58,6.58,0,0,1,1.44-1.58,3.2,3.2,0,0,1,2-.65,3.62,3.62,0,0,1,2.68,1.1,42.16,42.16,0,0,1,7.15,10.57q2.81,5.89,5,12a25.5,25.5,0,0,1,2.62,0,3.26,3.26,0,0,1,2.3,1.24,3.84,3.84,0,0,1,1.05,2.07,4.53,4.53,0,0,1-.19,2.13,4.38,4.38,0,0,1-1.15,1.79,4.17,4.17,0,0,1-1.95,1q.64,2.41,1.12,4.92t.8,5.06Zm-13-18.73q-1.21-3.1-2.59-6.16a47.87,47.87,0,0,0-3.1-5.82q-1.28,3-2.39,6t-2.08,6.09q3-.07,5.27-.07T266.28,188.67Z"/><path class="cls-7" d="M300.75,202.16a4.17,4.17,0,0,1,2.75,1.07,4.58,4.58,0,0,1,1.4,2.31,4.15,4.15,0,0,1-.19,2.58,3.68,3.68,0,0,1-2.11,2,9.14,9.14,0,0,1-2.71.62,28.64,28.64,0,0,1-3.13.1q-1.57,0-2.9-.14t-2-.1h-3.77a3.49,3.49,0,0,1-2.3-.79,4.46,4.46,0,0,1-1.37-1.89,4.32,4.32,0,0,1-.19-2.34,4.48,4.48,0,0,1,1.18-2.27,3.55,3.55,0,0,1,2.36-1.1,15.62,15.62,0,0,1,2.94,0V174.89q-1.47,0-2.75,0a4.43,4.43,0,0,1-2.55-1,3.66,3.66,0,0,1-1.28-1.76,3.74,3.74,0,0,1-.1-2,5.19,5.19,0,0,1,.86-1.89,3.77,3.77,0,0,1,1.6-1.31,4.36,4.36,0,0,1,1.85-.41q3.26,0,6.54,0t6.61,0a1,1,0,0,1,.61.21,3.26,3.26,0,0,0,.61.34,4.41,4.41,0,0,1,2,2.55,4,4,0,0,1-.38,3.24,3.48,3.48,0,0,1-1.12,1.27,4.2,4.2,0,0,1-1.47.62,7.7,7.7,0,0,1-1.63.17h-1.6v27.4c.34,0,.65,0,.93,0l.93-.1Z"/><path class="cls-8" d="M336.63,168.56a5.24,5.24,0,0,1,1.25-2.27,4.11,4.11,0,0,1,1.88-1.17,3.25,3.25,0,0,1,2.08.14,3.83,3.83,0,0,1,1.82,1.65,4.84,4.84,0,0,1,.48.83,2.14,2.14,0,0,1,.22.89q.13,9.85-.1,19.66t-.73,19.66a3.29,3.29,0,0,1-.93,2.48,4.21,4.21,0,0,1-2.11,1.14,4,4,0,0,1-2.39-.28,3.38,3.38,0,0,1-1.79-1.76.21.21,0,0,1-.06-.14v.14q-4.15-7.37-8.75-14.15t-9.58-13.46v20.86q0,2.14-.06,3.48t-.16,2.1a6.46,6.46,0,0,1-.29,1.31,3.54,3.54,0,0,1-1.76,2.2,3.63,3.63,0,0,1-2.39.28,3.76,3.76,0,0,1-2.11-1.38,4.22,4.22,0,0,1-.89-2.75V188.8q0-2.89,0-5.4t0-4.24q0-2.34-.06-4.65t0-4.65a3.56,3.56,0,0,1,.54-2,3.77,3.77,0,0,1,1.37-1.27,4.39,4.39,0,0,1,1.79-.52,4.25,4.25,0,0,1,1.85.27,4.15,4.15,0,0,1,1.56,1.14q.8.86,1.56,1.86t1.44,2q.67,1,1.12,1.62l3.83,5.06q2.17,2.86,4,5.4t3.61,5.23q1.76,2.62,3.42,5.23.19-6.26.26-12.46t.06-12.46Z"/><path class="cls-9" d="M377.75,167a4.76,4.76,0,0,1,2,1.76,5.77,5.77,0,0,1,1,2.48,3.57,3.57,0,0,1-.45,2.31,3.11,3.11,0,0,1-2.14,1.38,26.12,26.12,0,0,1-5.52.48q-2.59-.07-4.5-.07,0,8.26.06,16.25t-.06,16.87a3.18,3.18,0,0,1-1.21,2.79,3.82,3.82,0,0,1-2.65.72,4.55,4.55,0,0,1-2.65-1.24,3.89,3.89,0,0,1-1.21-3q-.06-8.12-.06-16.18V175.38q-.57,0-1.95.07t-3,0a28.35,28.35,0,0,1-3.35-.27,8.86,8.86,0,0,1-3-.93,2.64,2.64,0,0,1-1.34-1.62,4,4,0,0,1,0-2.17,5.57,5.57,0,0,1,1.05-2.07,3.79,3.79,0,0,1,1.92-1.31q5.36-.34,10.37-.24t10.18.1q1.53,0,3.06,0t3.13,0Z"/></g></svg>