<svg xmlns="http://www.w3.org/2000/svg" viewBox="0 0 39.03 39.04"><defs><style>.cls-1{fill:#f2f2f2;}</style></defs><title>linkedin</title><g id="Layer_2" data-name="Layer 2"><g id="Text"><path class="cls-1" d="M19.52,0A19.52,19.52,0,1,0,39,19.52,19.52,19.52,0,0,0,19.52,0Zm-5,29.13H10.22V15.41h4.27Zm-2.14-15.6a2.47,2.47,0,1,1,2.47-2.47A2.48,2.48,0,0,1,12.36,13.53Zm18.12,15.6H26.21V22.46c0-1.59,0-3.64-2.21-3.64s-2.56,1.73-2.56,3.52v6.79H17.17V15.41h4.09v1.88h.05a4.5,4.5,0,0,1,4-2.22c4.32,0,5.12,2.84,5.12,6.54Z"/></g></g></svg>