<svg xmlns="http://www.w3.org/2000/svg" viewBox="0 0 1216.35 767.65"><defs><style>.cls-1{fill:#34363a;}.cls-2{fill:#edece8;}.cls-3,.cls-7{fill:#070606;}.cls-3,.cls-6{opacity:0.3;}.cls-4{fill:#bbc1c5;}.cls-5{fill:#32354c;}.cls-8{fill:#63aa29;}.cls-9{fill:#dca031;}.cls-10{fill:#db413e;}.cls-11{fill:#999189;}.cls-12,.cls-21,.cls-22{fill:#fff;}.cls-13{fill:#dedbd4;}.cls-14{fill:#b8b3aa;}.cls-15,.cls-21,.cls-31{font-size:24px;}.cls-15{fill:#666;font-family:BrandonGrotesque-Light, Brandon Grotesque;}.cls-16{letter-spacing:0em;}.cls-17{letter-spacing:-0.01em;}.cls-18{fill:#6e6160;}.cls-19{fill:#1a1a1a;}.cls-20,.cls-35,.cls-36{fill:#00ab95;}.cls-21{font-family:BrandonGrotesque-Black, Brandon Grotesque;}.cls-22,.cls-37{opacity:0.5;}.cls-23,.cls-24,.cls-31{fill:#f2f2f2;}.cls-24{font-size:36px;font-family:AvenirNext-Regular, Avenir Next;}.cls-25{letter-spacing:-0.01em;}.cls-26{letter-spacing:-0.04em;}.cls-27{font-size:53.66px;}.cls-28{letter-spacing:-0.01em;}.cls-29{letter-spacing:0em;}.cls-30{letter-spacing:-0.01em;}.cls-31,.cls-35,.cls-36,.cls-37,.cls-38,.cls-39{font-family:ProximaNova-Bold, Proxima Nova;font-weight:700;}.cls-32{letter-spacing:-0.09em;}.cls-33{letter-spacing:0em;}.cls-34{letter-spacing:-0.01em;}.cls-35{font-size:33px;}.cls-36,.cls-37{font-size:107.42px;}.cls-37{fill:#004622;}.cls-38{font-size:60.83px;fill:#4d4d4d;}.cls-39{font-size:74.3px;fill:gray;}.cls-40{letter-spacing:0em;}</style></defs><title>homepage</title><g id="chrome"><g id="Browser-Dark"><path class="cls-1" d="M1216,66.21V16.91a11.12,11.12,0,0,0-11.12-11.12H11.35A11.12,11.12,0,0,0,.24,16.91v49.3Z"/><rect class="cls-2" x="0.24" y="66.21" width="1215.74" height="89.88"/><path class="cls-3" d="M74,122.34c.9-.88,9.72-10.14,9.72-10.14a2.36,2.36,0,0,0,0-3.4S74.93,99.55,74,98.67a2.57,2.57,0,0,0-3.49,0,2.3,2.3,0,0,0,0,3.4l8.09,8.44-8.09,8.44a2.3,2.3,0,0,0,0,3.4A2.57,2.57,0,0,0,74,122.34Z"/><path class="cls-3" d="M32.79,99c-.9.88-9.72,10.14-9.72,10.14a2.36,2.36,0,0,0,0,3.4s8.82,9.26,9.72,10.14a2.57,2.57,0,0,0,3.49,0,2.3,2.3,0,0,0,0-3.4l-8.09-8.44,8.09-8.44a2.3,2.3,0,0,0,0-3.4A2.57,2.57,0,0,0,32.79,99Z"/><path class="cls-4" d="M188.15,66.38c16.38,0,15.7-42.13,29.36-42.13H373.69c16.38,0,15.7,42.13,29.36,42.13Z"/><path class="cls-5" d="M374,48.09l-2.58-3,2.58-3a1.12,1.12,0,0,0-1.59-1.59L370,43.43l-2.48-2.84a1.12,1.12,0,1,0-1.59,1.59l2.58,3-2.58,3a1.12,1.12,0,1,0,1.59,1.59L370,46.84l2.48,2.84A1.12,1.12,0,0,0,374,48.09Z"/><path class="cls-2" d="M2.49,66.66c16.38,0,15.7-42.13,29.36-42.13H188c16.38,0,15.7,42.13,29.36,42.13Z"/><path class="cls-5" d="M187.44,50.13l-2.58-3,2.58-3a1.12,1.12,0,0,0-1.59-1.59l-2.48,2.84-2.48-2.84a1.12,1.12,0,1,0-1.59,1.59l2.58,3-2.58,3a1.12,1.12,0,1,0,1.59,1.59l2.48-2.84,2.48,2.84a1.12,1.12,0,0,0,1.59-1.59Z"/><g class="cls-6"><path class="cls-7" d="M129.28,97.58a11.82,11.82,0,0,1,11.8,11.55h3.55L139.31,115,134,109.12h4.12a8.87,8.87,0,1,0-3.61,7.46l2,2.17a11.83,11.83,0,1,1-7.27-21.18Z"/></g><circle class="cls-8" cx="1099.45" cy="35.59" r="12.48"/><circle class="cls-9" cx="1141.69" cy="35.59" r="12.48"/><circle class="cls-10" cx="1184.14" cy="35.59" r="12.48"/><path class="cls-11" d="M1167.27,111.38h-26.06a2.61,2.61,0,0,0,0,5.14h26.06a2.61,2.61,0,0,0,0-5.14Zm-26.06-5.14h26.06a2.61,2.61,0,0,0,0-5.14h-26.06a2.61,2.61,0,0,0,0,5.14Zm26.06,15.43h-26.06a2.61,2.61,0,0,0,0,5.14h26.06a2.61,2.61,0,0,0,0-5.14Z"/><path class="cls-12" d="M1097.7,132.15a6.57,6.57,0,0,1-6.57,6.57l-915.2-2.22a6.57,6.57,0,0,1-6.57-6.57V93.42a6.57,6.57,0,0,1,6.57-6.57l915.2,2.22a6.57,6.57,0,0,1,6.57,6.57Z"/><path class="cls-13" d="M199.16,97.42H185.92a.35.35,0,0,0-.33.36v26.73a.35.35,0,0,0,.33.36h20.17a.35.35,0,0,0,.33-.36V105Z"/><path class="cls-14" d="M199.16,97.47v0l7.27,7.56-6.78-.07a.59.59,0,0,1-.48-.64c0-.56,0-6.85,0-6.85"/><text class="cls-15" transform="translate(221.2 117.95)"><tspan class="cls-16">k</tspan><tspan class="cls-17" x="10.2" y="0">k</tspan><tspan x="20.33" y="0">amalapirat.com</tspan></text><path class="cls-18" d="M104.2,48.3a.36.36,0,0,0,0,.5.35.35,0,0,0,.5,0l2-2a.36.36,0,0,0,0-.5l-2-2a.35.35,0,0,0-.5,0,.36.36,0,0,0,0,.5l1.62,1.76Z"/><path class="cls-18" d="M106.67,48.3a.36.36,0,0,0,0,.5.35.35,0,0,0,.5,0l2-2a.36.36,0,0,0,0-.5l-2-2a.35.35,0,0,0-.5,0,.36.36,0,0,0,0,.5l1.62,1.76Z"/></g></g><g id="background"><rect class="cls-19" x="0.35" y="156.4" width="1216" height="611"/><polygon class="cls-20" points="1216.35 226.4 0.35 205.4 0.35 156.4 1216.35 156.4 1216.35 226.4"/><text class="cls-21" transform="translate(239.47 191)">case studies</text></g><g id="Text"><polygon class="cls-12" points="50.14 199.19 37.27 185.31 49.71 171.41 43.66 171.41 31.02 185.31 43.64 199.19 50.14 199.19"/><polygon class="cls-12" points="62.35 199.19 49.48 185.31 61.91 171.41 55.86 171.41 43.23 185.31 55.84 199.19 62.35 199.19"/><polygon class="cls-22" points="62.35 199.19 49.48 185.31 61.91 171.41 55.86 171.41 43.23 185.31 55.84 199.19 62.35 199.19"/><rect class="cls-12" x="26.26" y="171.4" width="4.78" height="27.83"/><rect class="cls-22" x="26.26" y="171.4" width="4.78" height="27.83"/><path class="cls-23" d="M1070.37,181.82a19.39,19.39,0,0,0-7.09-7.09,19.6,19.6,0,0,0-19.56,0,19.39,19.39,0,0,0-7.09,7.09,19.51,19.51,0,0,0,10.7,28.27,1.14,1.14,0,0,0,1-.18,1,1,0,0,0,.33-.76q0-.08,0-1.37t0-2.26l-.58.1a7.44,7.44,0,0,1-1.41.09,10.73,10.73,0,0,1-1.76-.18,3.94,3.94,0,0,1-1.7-.76,3.22,3.22,0,0,1-1.12-1.56l-.25-.58a6.34,6.34,0,0,0-.8-1.29,3.06,3.06,0,0,0-1.1-1l-.18-.13a1.86,1.86,0,0,1-.33-.3,1.39,1.39,0,0,1-.23-.36q-.08-.18.13-.29a1.64,1.64,0,0,1,.74-.11l.51.08a3.7,3.7,0,0,1,1.26.61,4.09,4.09,0,0,1,1.23,1.32,4.47,4.47,0,0,0,1.41,1.59,3,3,0,0,0,1.66.55,7.21,7.21,0,0,0,1.45-.13,5,5,0,0,0,1.14-.38,4.11,4.11,0,0,1,1.24-2.61,17.37,17.37,0,0,1-2.6-.46,10.35,10.35,0,0,1-2.38-1,6.83,6.83,0,0,1-2-1.7,8.17,8.17,0,0,1-1.33-2.66,12.66,12.66,0,0,1-.52-3.8,7.4,7.4,0,0,1,2-5.23,6.82,6.82,0,0,1,.18-5.17,3.55,3.55,0,0,1,2.18.34,15.25,15.25,0,0,1,2.12,1q.67.41,1.08.68a18.32,18.32,0,0,1,9.74,0l1-.61a13.65,13.65,0,0,1,2.33-1.12,3.32,3.32,0,0,1,2.06-.28,6.75,6.75,0,0,1,.2,5.17,7.4,7.4,0,0,1,2,5.23,12.81,12.81,0,0,1-.52,3.82,7.85,7.85,0,0,1-1.34,2.66,7.09,7.09,0,0,1-2.05,1.69,10.37,10.37,0,0,1-2.38,1,17.35,17.35,0,0,1-2.6.46,4.52,4.52,0,0,1,1.32,3.6v5.35a1,1,0,0,0,.32.76,1.1,1.1,0,0,0,1,.18,19.52,19.52,0,0,0,10.7-28.27Z"/><path class="cls-23" d="M1116.83,171.93a19.52,19.52,0,1,0,19.51,19.52A19.52,19.52,0,0,0,1116.83,171.93Zm2.25,25.22a7.73,7.73,0,0,1-4.37,2.87,9.45,9.45,0,0,1-2.91.28,8.6,8.6,0,0,1-4.74-1.68,8.79,8.79,0,0,1-3.48-5.3,8.39,8.39,0,0,1-.19-2.39,8.88,8.88,0,0,1,6.73-8.11,6.64,6.64,0,0,1,1.46-.23c.28,0,.57,0,.85,0a8.41,8.41,0,0,1,4.21,1.15,11,11,0,0,1,1.57,1.15l-2.58,2.58a4.79,4.79,0,0,0-2.61-1.26,5.24,5.24,0,0,0-5.84,4.09,5,5,0,0,0-.11,1.61,5.35,5.35,0,0,0,3.66,4.62,5.21,5.21,0,0,0,1.92.22,5.06,5.06,0,0,0,2.58-.83,4,4,0,0,0,1.74-2.67h-4.75s0-2.35,0-3.43a1.4,1.4,0,0,1,0-.14h8.35A9.53,9.53,0,0,1,1119.08,197.15Zm9.25-4.95v3.1h-2.42v-3.1h-3.1v-2.42h3.1v-3.1h2.42v3.1h3.1v2.42Z"/><path class="cls-23" d="M1173.83,170.81a19.52,19.52,0,1,0,19.51,19.52A19.52,19.52,0,0,0,1173.83,170.81Zm-5,29.13h-4.27V186.22h4.27Zm-2.14-15.6a2.47,2.47,0,1,1,2.47-2.47A2.48,2.48,0,0,1,1166.68,184.34Zm18.12,15.6h-4.27v-6.67c0-1.59,0-3.64-2.21-3.64s-2.56,1.73-2.56,3.52v6.79h-4.27V186.22h4.09v1.88h.05a4.5,4.5,0,0,1,4-2.22c4.32,0,5.12,2.84,5.12,6.54Z"/><text class="cls-24" transform="translate(500.35 382.74)">Hello<tspan class="cls-25" x="86.58" y="0"> </tspan><tspan class="cls-26" x="95.15" y="0">W</tspan><tspan x="128.84" y="0">orld !</tspan><tspan class="cls-27"><tspan x="-203.57" y="64.39">I’m Ki</tspan><tspan class="cls-28" x="-69.8" y="64.39">t</tspan><tspan x="-53.44" y="64.39">tichote </tspan><tspan class="cls-28" x="128.99" y="64.39">K</tspan><tspan class="cls-29" x="162.04" y="64.39">amalapi</tspan><tspan class="cls-28" x="356.38" y="64.39">r</tspan><tspan class="cls-30" x="375.05" y="64.39">a</tspan><tspan x="403.17" y="64.39">t</tspan></tspan></text><text class="cls-31" transform="translate(289.74 536.3)">I’m a designe<tspan class="cls-32" x="144.6" y="0">r</tspan><tspan x="151.15" y="0">, develope</tspan><tspan class="cls-32" x="263.49" y="0">r</tspan><tspan class="cls-33" x="270.04" y="0">. I create impactful design that t</tspan><tspan x="11.17" y="28.8">help change the world. blah blah blah I’m so cool hehe</tspan><tspan x="-4.38" y="57.6">I love sushi ramen tokatsu ninjin tamanegi </tspan><tspan class="cls-34" x="460.01" y="57.6">k</tspan><tspan x="472.71" y="57.6">omaneji yeah</tspan></text><text class="cls-35" transform="translate(990.04 675.48) rotate(18.52)">$(#)</text><text class="cls-36" transform="translate(151.83 395.68) rotate(-13.64)">&lt;&gt;</text><text class="cls-37" transform="translate(151.83 395.68) rotate(-13.64)">&lt;&gt;</text><text class="cls-38" transform="translate(988.09 452.78) rotate(-26.76)">{ }</text><text class="cls-39" transform="matrix(0.98, 0.2, -0.2, 0.98, 181.55, 678.48)">Ai</text><text class="cls-21" transform="translate(107.32 190.89)">p<tspan class="cls-40" x="12.24" y="0">r</tspan><tspan x="20.42" y="0">ojects</tspan></text><path class="cls-23" d="M1002.64,178.11a19.5,19.5,0,1,0,5.71,13.79A19.43,19.43,0,0,0,1002.64,178.11Zm-13.79-2.8a5.13,5.13,0,1,1-5.13,5.13A5.13,5.13,0,0,1,988.84,175.31Zm-8.11,13.74,6.53-2.65,1.59,1.82,1.59-1.82,6.53,2.65v3H980.73Zm5.36,18.16a6.52,6.52,0,0,1-2.65.49,6.32,6.32,0,0,1-2.51-.48,5.46,5.46,0,0,1-1.88-1.32,5.8,5.8,0,0,1-1.19-2,7.37,7.37,0,0,1-.41-2.51,6.91,6.91,0,0,1,.45-2.53,5.89,5.89,0,0,1,1.26-2,5.69,5.69,0,0,1,1.94-1.3,6.52,6.52,0,0,1,2.49-.46,6.72,6.72,0,0,1,1.31.12,6.53,6.53,0,0,1,1.14.34,5.26,5.26,0,0,1,1,.52,5.18,5.18,0,0,1,.79.66l-1,1.29a1.24,1.24,0,0,1-.22.21.58.58,0,0,1-.36.1.63.63,0,0,1-.29-.07l-.29-.16-.33-.21a2.62,2.62,0,0,0-.43-.21,3.77,3.77,0,0,0-.58-.17,4,4,0,0,0-.78-.07,3.16,3.16,0,0,0-1.3.26,2.82,2.82,0,0,0-1,.76,3.54,3.54,0,0,0-.66,1.23,5.51,5.51,0,0,0-.23,1.67,5.1,5.1,0,0,0,.26,1.68,3.71,3.71,0,0,0,.7,1.24,3,3,0,0,0,1,.77,3.11,3.11,0,0,0,1.27.26,6,6,0,0,0,.71,0,3.31,3.31,0,0,0,.6-.13,2.46,2.46,0,0,0,.52-.24,3.22,3.22,0,0,0,.5-.38,1.09,1.09,0,0,1,.22-.14.58.58,0,0,1,.45,0,.55.55,0,0,1,.19.13l1.13,1.19A4.69,4.69,0,0,1,986.09,207.22Zm9.22.36h-2.59l-4.94-12.32h2.3a1,1,0,0,1,.6.17,1.1,1.1,0,0,1,.35.44l2.38,6.59c.11.29.22.6.33.94s.21.7.3,1.07q.12-.56.27-1.07c.1-.34.21-.66.32-.94l2.37-6.59a1,1,0,0,1,.33-.43.93.93,0,0,1,.6-.19h2.32Z"/></g></svg>