<svg xmlns="http://www.w3.org/2000/svg" viewBox="0 0 38.96 38.01"><defs><style>.cls-1{fill:#f2f2f2;}</style></defs><title>github</title><g id="Layer_2" data-name="Layer 2"><g id="Text"><path class="cls-1" d="M36.35,9.7a19.39,19.39,0,0,0-7.09-7.09A19.05,19.05,0,0,0,19.48,0,19.05,19.05,0,0,0,9.7,2.61,19.39,19.39,0,0,0,2.61,9.7,19.05,19.05,0,0,0,0,19.48,18.93,18.93,0,0,0,3.72,30.93a19.08,19.08,0,0,0,9.6,7,1.14,1.14,0,0,0,1-.18,1,1,0,0,0,.33-.76q0-.08,0-1.37t0-2.26l-.58.1a7.44,7.44,0,0,1-1.41.09,10.73,10.73,0,0,1-1.76-.18,3.94,3.94,0,0,1-1.7-.76A3.22,3.22,0,0,1,8.07,31.1l-.25-.58A6.34,6.34,0,0,0,7,29.22a3.06,3.06,0,0,0-1.1-1l-.18-.13a1.86,1.86,0,0,1-.33-.3,1.39,1.39,0,0,1-.23-.36q-.08-.18.13-.29A1.64,1.64,0,0,1,6,27.06l.51.08a3.7,3.7,0,0,1,1.26.61A4.09,4.09,0,0,1,9,29.07a4.47,4.47,0,0,0,1.41,1.59,3,3,0,0,0,1.66.55,7.21,7.21,0,0,0,1.45-.13,5,5,0,0,0,1.14-.38,4.11,4.11,0,0,1,1.24-2.61,17.37,17.37,0,0,1-2.6-.46,10.35,10.35,0,0,1-2.38-1,6.83,6.83,0,0,1-2-1.7,8.17,8.17,0,0,1-1.33-2.66,12.66,12.66,0,0,1-.52-3.8,7.4,7.4,0,0,1,2-5.23,6.82,6.82,0,0,1,.18-5.17,3.55,3.55,0,0,1,2.18.34,15.25,15.25,0,0,1,2.12,1q.67.41,1.08.68a18.32,18.32,0,0,1,9.74,0l1-.61a13.65,13.65,0,0,1,2.33-1.12,3.32,3.32,0,0,1,2.06-.28,6.75,6.75,0,0,1,.2,5.17,7.4,7.4,0,0,1,2,5.23,12.81,12.81,0,0,1-.52,3.82A7.85,7.85,0,0,1,30,24.94,7.09,7.09,0,0,1,28,26.63a10.37,10.37,0,0,1-2.38,1,17.35,17.35,0,0,1-2.6.46,4.52,4.52,0,0,1,1.32,3.6V37a1,1,0,0,0,.32.76,1.1,1.1,0,0,0,1,.18,19.08,19.08,0,0,0,9.6-7A18.93,18.93,0,0,0,39,19.48,19.07,19.07,0,0,0,36.35,9.7Z"/></g></g></svg>