<svg xmlns="http://www.w3.org/2000/svg" viewBox="0 0 260 260"><defs><style>.cls-1{fill:#f2f2f2;}</style></defs><title>resume2</title><g id="Layer_2" data-name="Layer 2"><g id="Text"><path class="cls-1" d="M221.92,38.08A130,130,0,1,0,260,130,129.56,129.56,0,0,0,221.92,38.08ZM130,19.43A34.22,34.22,0,1,1,95.74,53.65,34.23,34.23,0,0,1,130,19.43Zm-54.1,91.62,43.51-17.66L130,105.53l10.58-12.14,43.51,17.66V131H75.87ZM111.6,232.13a43.47,43.47,0,0,1-17.67,3.3,42.13,42.13,0,0,1-16.76-3.18,36.39,36.39,0,0,1-12.56-8.79,38.67,38.67,0,0,1-7.92-13.3,49.15,49.15,0,0,1-2.76-16.71,46,46,0,0,1,3-16.87,39.24,39.24,0,0,1,8.39-13.27,37.92,37.92,0,0,1,13-8.68,43.46,43.46,0,0,1,16.62-3.1,44.81,44.81,0,0,1,8.71.82,43.5,43.5,0,0,1,7.63,2.25,35,35,0,0,1,6.54,3.47,34.56,34.56,0,0,1,5.29,4.39l-6.42,8.63a8.26,8.26,0,0,1-1.46,1.43,3.86,3.86,0,0,1-2.37.65,4.23,4.23,0,0,1-1.92-.45,20.79,20.79,0,0,1-1.91-1.1l-2.23-1.41a17.45,17.45,0,0,0-2.87-1.41,25.15,25.15,0,0,0-3.89-1.1,26.53,26.53,0,0,0-5.21-.45A21.06,21.06,0,0,0,86.13,169a18.77,18.77,0,0,0-6.76,5.1,23.62,23.62,0,0,0-4.4,8.23,36.7,36.7,0,0,0-1.55,11.12,34,34,0,0,0,1.72,11.22,24.74,24.74,0,0,0,4.68,8.25,20,20,0,0,0,6.9,5.1,20.72,20.72,0,0,0,8.45,1.75,40.31,40.31,0,0,0,4.74-.26,22.09,22.09,0,0,0,4-.84,16.42,16.42,0,0,0,3.49-1.58,21.46,21.46,0,0,0,3.32-2.51,7.29,7.29,0,0,1,1.47-.93,3.85,3.85,0,0,1,3-.11,3.68,3.68,0,0,1,1.29.87l7.55,8A31.26,31.26,0,0,1,111.6,232.13Zm61.5,2.4H155.85l-32.9-82.1h15.32a6.42,6.42,0,0,1,4,1.16,7.36,7.36,0,0,1,2.32,3l15.88,43.95c.76,1.91,1.49,4,2.2,6.28s1.39,4.65,2,7.13q.8-3.72,1.77-7.13c.66-2.27,1.37-4.37,2.12-6.28l15.77-43.95a7,7,0,0,1,2.23-2.85,6.23,6.23,0,0,1,4-1.27H206Z"/></g></g></svg>