<svg xmlns="http://www.w3.org/2000/svg" viewBox="0 0 39.03 39.04"><defs><style>.cls-1{fill:#f2f2f2;}</style></defs><title>gmail</title><g id="Layer_2" data-name="Layer 2"><g id="Text"><path class="cls-1" d="M19.52,0A19.52,19.52,0,1,0,39,19.52,19.52,19.52,0,0,0,19.52,0Zm2.25,25.22A7.73,7.73,0,0,1,17.4,28.1a9.45,9.45,0,0,1-2.91.28A8.6,8.6,0,0,1,9.75,26.7a8.79,8.79,0,0,1-3.48-5.3A8.39,8.39,0,0,1,6.09,19a8.88,8.88,0,0,1,6.73-8.11,6.64,6.64,0,0,1,1.46-.23c.28,0,.57,0,.85,0a8.41,8.41,0,0,1,4.21,1.15,11,11,0,0,1,1.57,1.15l-2.58,2.58a4.79,4.79,0,0,0-2.61-1.26,5.24,5.24,0,0,0-5.84,4.09A5,5,0,0,0,9.78,20a5.35,5.35,0,0,0,3.66,4.62,5.21,5.21,0,0,0,1.92.22A5.06,5.06,0,0,0,17.94,24a4,4,0,0,0,1.74-2.67H14.93s0-2.35,0-3.43a1.4,1.4,0,0,1,0-.14h8.35A9.53,9.53,0,0,1,21.77,25.22ZM31,20.28v3.1H28.6v-3.1H25.5V17.86h3.1v-3.1H31v3.1h3.1v2.42Z"/></g></g></svg>